<svg xmlns="http://www.w3.org/2000/svg" width="620" height="317" viewBox="0 0 620 317">
  <g id="Grupo_147195" data-name="Grupo 147195" transform="translate(709 7167.152)">
    <rect id="Rectángulo_40612" data-name="Rectángulo 40612" width="620" height="317" transform="translate(-709 -7167.152)" fill="#f57c22" opacity="0.7"/>
    <g id="Grupo_146538" data-name="Grupo 146538" transform="translate(267.089 -7787.946)">
      <path id="Trazado_216688" data-name="Trazado 216688" d="M-380.435,759.418a3.4,3.4,0,0,1-1.407,1.558c-4.052,2.239-8.09,4.506-12.145,6.74a2.288,2.288,0,0,1-3.331-.751,2.153,2.153,0,0,1,.858-3.026q6.287-3.562,12.625-7.033c1.266-.693,2.226-.315,3.4,1.15Z" transform="translate(-227.505 -22.145)"/>
      <path id="Trazado_216689" data-name="Trazado 216689" d="M-678.183,809.342c.911,1.581,1.777,3.072,2.63,4.568,1.04,1.824.759,2.895-1.035,3.938-1.564.909-3.118,1.84-4.711,2.7-.591.318-.59.574-.281,1.1,2.15,3.679,4.319,7.348,6.39,11.072A9.039,9.039,0,0,1-681,846.1a9.045,9.045,0,0,1-9.99-4.521q-5.353-9.187-10.622-18.423c-.491-.862-.864-1.1-1.885-.767a15.844,15.844,0,0,1-19.177-8.591,15.806,15.806,0,0,1,6.332-20.131c6.16-3.655,12.4-7.176,18.611-10.748a4.848,4.848,0,0,0,1.44-1.238q14.7-18.783,29.429-37.548a6.778,6.778,0,0,1,11.27.856c2.625,4.4,5.172,8.857,7.681,13.329a1.732,1.732,0,0,0,1.935,1.049c2.371-.21,4.752-.3,7.126-.467a2.53,2.53,0,0,1,2.6,1.414q2.062,3.642,4.2,7.244a2.586,2.586,0,0,1-.125,3.053c-1.425,2.088-2.772,4.229-4.193,6.32a1.028,1.028,0,0,0-.027,1.3c2.4,4.1,4.806,8.2,7.121,12.346a6.76,6.76,0,0,1-4.358,10.064c-2.7.547-5.409,1.041-8.112,1.568q-13.6,2.654-27.208,5.317C-671.983,808.118-675.008,808.717-678.183,809.342Z" transform="translate(0 -11.653)"/>
      <path id="Trazado_216690" data-name="Trazado 216690" d="M-392.305,827.127c.251.057.731.149,1.2.274,2.585.684,5.173,1.355,7.749,2.072a2.239,2.239,0,0,1,1.79,2.8,2.241,2.241,0,0,1-3.021,1.546c-2.84-.748-5.682-1.494-8.507-2.3a2.2,2.2,0,0,1-1.656-2.493A2.328,2.328,0,0,1-392.305,827.127Z" transform="translate(-229.487 -71.313)"/>
      <path id="Trazado_216691" data-name="Trazado 216691" d="M-436.945,735.412c.537-2.03,1.132-4.288,1.73-6.545.212-.8.4-1.609.658-2.4a2.273,2.273,0,0,1,2.737-1.6,2.249,2.249,0,0,1,1.611,2.813c-.755,2.917-1.527,5.83-2.349,8.729a2.154,2.154,0,0,1-2.6,1.621A2.283,2.283,0,0,1-436.945,735.412Z" transform="translate(-200.097)"/>
      <path id="Trazado_216692" data-name="Trazado 216692" d="M-568.278,821.675c-3.414.677-6.73,1.344-10.051,1.993-9.552,1.868-19.108,3.717-28.653,5.617a1.012,1.012,0,0,1-1.312-.6q-5.545-9.669-11.145-19.306a1.016,1.016,0,0,1,.022-1.378q12.346-15.665,24.643-31.368a3.715,3.715,0,0,1,.315-.3Z" transform="translate(-72.747 -35.913)" fill="#acf2fe"/>
      <path id="Trazado_216693" data-name="Trazado 216693" d="M-697.709,924.11a11.3,11.3,0,0,1-10.9-8.16,11.167,11.167,0,0,1,4.944-12.77c5.739-3.42,11.561-6.7,17.338-10.06.447-.26.666-.281.953.219q5.329,9.281,10.705,18.535c.247.426.178.627-.245.868-5.965,3.407-11.91,6.849-17.886,10.237A9.53,9.53,0,0,1-697.709,924.11Z" transform="translate(-10.477 -117.176)" fill="#2bbcc3"/>
      <path id="Trazado_216694" data-name="Trazado 216694" d="M-497.519,806.841c-.794.358-.919-.372-1.178-.819q-10.369-17.933-20.722-35.875c-1.981-3.431-3.94-6.874-5.949-10.289-.449-.764-.734-1.348,0-2.154a2.5,2.5,0,0,1,2.645-1.058,2.79,2.79,0,0,1,1.672,1.58q5.71,9.9,11.425,19.806c4.753,8.235,9.448,16.5,14.3,24.68C-494.065,804.835-495.109,806.947-497.519,806.841Z" transform="translate(-138.17 -22.139)" fill="#2bbcc3"/>
      <path id="Trazado_216695" data-name="Trazado 216695" d="M-623.136,1011.93a4.2,4.2,0,0,1-3.941-2.209c-3.645-6.26-7.246-12.546-10.9-18.8-.4-.692-.315-.972.386-1.355,2.118-1.158,4.2-2.391,6.268-3.63.524-.314.788-.327,1.128.266,3.617,6.32,7.306,12.6,10.888,18.938A4.441,4.441,0,0,1-623.136,1011.93Z" transform="translate(-59.845 -181.832)" fill="#495d84"/>
      <path id="Trazado_216696" data-name="Trazado 216696" d="M-462.212,814.387c1.7-.11,3.2-.2,4.7-.308.454-.032.554.333.717.612.818,1.4,1.621,2.809,2.434,4.213.189.326.381.6.09,1.01-.842,1.2-1.632,2.437-2.542,3.81Z" transform="translate(-182.495 -62.218)" fill="#e8edef"/>
      <path id="Trazado_216697" data-name="Trazado 216697" d="M-593.749,974.123c-.007.23-.193.3-.352.4-1.008.583-2.025,1.153-3.024,1.752-.321.192-.54.219-.695-.167a1.892,1.892,0,0,0-.114-.194l-1.8-3.238a27,27,0,0,1,3.323-2.056c.193-.126.44-.386.654-.017.642,1.1,1.275,2.215,1.91,3.323C-593.808,973.987-593.78,974.057-593.749,974.123Z" transform="translate(-86.661 -171.162)" fill="#fdfdfd"/>
      <path id="Trazado_216698" data-name="Trazado 216698" d="M-685.806,963.926a6.63,6.63,0,0,1-5.718-3.078,2.275,2.275,0,0,1,.487-3.3,2.24,2.24,0,0,1,3.179.645c1.093,1.368,2.007,1.553,3.527.693,1.115-.631,2.213-1.294,3.333-1.916a2.294,2.294,0,0,1,3.331.754,2.275,2.275,0,0,1-1.064,3.167c-1.26.756-2.542,1.477-3.825,2.194A6.2,6.2,0,0,1-685.806,963.926Z" transform="translate(-22.356 -161.522)"/>
      <path id="Trazado_216699" data-name="Trazado 216699" d="M-630.445,941.6a2.229,2.229,0,0,1,2.231,2.21,2.3,2.3,0,0,1-2.3,2.287,2.288,2.288,0,0,1-2.225-2.24A2.221,2.221,0,0,1-630.445,941.6Z" transform="translate(-63.662 -151.085)" fill="#000101"/>
    </g>
  </g>
</svg>
