<svg xmlns="http://www.w3.org/2000/svg" width="1135" height="224" viewBox="0 0 1135 224">
  <rect id="Rectángulo_41876" data-name="Rectángulo 41876" width="1050" height="224" transform="translate(85)" fill="#fffae1" opacity="0.505"/>
  <g id="Grupo_146432" data-name="Grupo 146432" transform="translate(-149 -873)">
    <g id="Grupo_128133" data-name="Grupo 128133" transform="translate(180 948)">
      <rect id="Rectángulo_33803" data-name="Rectángulo 33803" width="173" height="81.685" transform="translate(-31 -6.948)" fill="none"/>
      <rect id="Rectángulo_41606" data-name="Rectángulo 41606" width="125.557" height="62.779" rx="31.389" transform="translate(0.001 6.726)" fill="#fcd1b1"/>
      <g id="Grupo_146442" data-name="Grupo 146442" transform="translate(1259.116 -1921.804)">
        <path id="Trazado_216432" data-name="Trazado 216432" d="M-1111.125,1967.547a28.573,28.573,0,0,1-4.373-.384.88.88,0,0,0-1.095.487,5.148,5.148,0,0,1-6.13,2.242,5.174,5.174,0,0,1-3.555-5.481.884.884,0,0,0-.582-1.044,28.165,28.165,0,0,1-9.177-7.984c-7.418-10.123-6.1-23.287,3.245-32.017a31.361,31.361,0,0,1,19.707-8.406,32.339,32.339,0,0,1,22.161,6.163A24.893,24.893,0,0,1-1080.7,1936.6a22.9,22.9,0,0,1-4.984,19.638c-4.932,6.117-11.485,9.5-19.165,10.826A36.549,36.549,0,0,1-1111.125,1967.547Z" transform="translate(-75.103)"/>
        <path id="Trazado_216433" data-name="Trazado 216433" d="M-1201.814,2224.258h-23.74a1.483,1.483,0,0,1-.242-1.1c-.006-3.95-.018-7.9,0-11.849a4.247,4.247,0,0,1,4.416-4.415q7.693-.029,15.387,0a4.247,4.247,0,0,1,4.416,4.415c.021,3.95.008,7.9,0,11.849A1.484,1.484,0,0,1-1201.814,2224.258Z" transform="translate(-8.821 -227.75)" fill="#7599cb"/>
        <path id="Trazado_216434" data-name="Trazado 216434" d="M-1210.635,2141.118q-.006-6.375-.012-12.75a3.979,3.979,0,0,0-4.331-4.357q-7.527,0-15.054,0a3.983,3.983,0,0,0-4.33,4.357q-.008,6.375-.012,12.75c-.845-.008-1.925.3-2.468-.112-.513-.387-.144-1.535-.148-2.347-.018-3.264.124-6.535-.04-9.791a6.836,6.836,0,0,1,7.215-7.519c.01-.295-.261-.385-.411-.548a10.09,10.09,0,0,1-2.808-6.995,30.3,30.3,0,0,1,.114-4.764c.861-5.531,5.64-9.165,11.483-8.728a10.3,10.3,0,0,1,9.469,10.279,42.385,42.385,0,0,1-.075,4.275,10.11,10.11,0,0,1-3.3,6.482,16.055,16.055,0,0,1,2.036.158,6.5,6.5,0,0,1,5.266,6.124c.068,4.333.019,8.667.034,13,0,.381-.081.535-.493.513C-1209.208,2141.109-1209.922,2141.125-1210.635,2141.118Z" transform="translate(0 -144.61)"/>
        <path id="Trazado_216435" data-name="Trazado 216435" d="M-1102.96,2158.176a3.968,3.968,0,0,1-3.9,3.96,3.967,3.967,0,0,1-4-3.939,3.964,3.964,0,0,1,3.9-3.958A3.964,3.964,0,0,1-1102.96,2158.176Z" transform="translate(-98.467 -186.691)"/>
        <path id="Trazado_216436" data-name="Trazado 216436" d="M-1101.124,1926.7c8.1.164,15.3,2.635,21.1,8.46a20.968,20.968,0,0,1,6.52,15.48,21.123,21.123,0,0,1-7.3,15.8c-6.424,5.874-14.124,8.131-22.728,7.59a32.218,32.218,0,0,1-3.425-.425c-1.5-.256-1.787-.1-2.242,1.293a2.6,2.6,0,0,1-2.6,1.868,2.635,2.635,0,0,1-2.437-1.988,1.926,1.926,0,0,1,.074-1.448c.68-1.24.091-1.944-1.049-2.512a25.379,25.379,0,0,1-9.716-8.3,21,21,0,0,1,2.611-27.345,28.926,28.926,0,0,1,18.149-8.318A26.9,26.9,0,0,1-1101.124,1926.7Z" transform="translate(-84.463 -9.237)" fill="#d8d8d8"/>
        <path id="Trazado_216437" data-name="Trazado 216437" d="M-1198.688,2142.2c2.36,0,4.719.017,7.079-.013.562-.007.791.141.765.724-.083,1.856.217,3.731-.3,5.565a7.794,7.794,0,0,1-8.7,5.545,7.658,7.658,0,0,1-6.811-7.528c-.018-1.207.017-2.415,0-3.622-.009-.531.179-.691.72-.685C-1203.517,2142.214-1201.1,2142.2-1198.688,2142.2Z" transform="translate(-23.756 -177.29)" fill="#e5c49a"/>
        <path id="Trazado_216438" data-name="Trazado 216438" d="M-1187.974,2116.22H-1201.6c.638-1.936,3.513-3.792,6.032-3.917C-1192.1,2112.132-1189.067,2113.672-1187.974,2116.22Z" transform="translate(-27.7 -153.977)" fill="#495766"/>
        <path id="Trazado_216439" data-name="Trazado 216439" d="M-1096.265,2167.516a1.323,1.323,0,0,1-1.3,1.31,1.325,1.325,0,0,1-1.329-1.362,1.321,1.321,0,0,1,1.339-1.268A1.324,1.324,0,0,1-1096.265,2167.516Z" transform="translate(-107.798 -196.017)" fill="#d6d6d6"/>
        <path id="Trazado_216440" data-name="Trazado 216440" d="M-1022.7,1982.667c-.368.787-1.185.464-1.777.7-.259.1-.6-.007-.86.181a.427.427,0,0,1-.213-.334c-.063-.649-.476-.768-1.04-.767a13.9,13.9,0,0,1-7.122-2.005,1.965,1.965,0,0,1-1.114-1.919,8.7,8.7,0,0,0-4.4-8.034,1.694,1.694,0,0,1-.868-1.62,13.486,13.486,0,0,1,11.07-13.018,13.378,13.378,0,0,1,15.57,11.218,13.088,13.088,0,0,1-1.436,8.283c-.543,1.049-.769,1.036-1.431.082-.758-1.093-1.613-1.1-2.3.026-1.221,1.988-2.394,4-3.617,5.99C-1022.47,1981.835-1022.43,1982.305-1022.7,1982.667Z" transform="translate(-153.66 -31.817)" fill="#cbdaef"/>
        <path id="Trazado_216441" data-name="Trazado 216441" d="M-1068.674,1974.212a2.012,2.012,0,0,1,.363-1.474c1.18-1.942,2.342-3.895,3.518-5.839.8-1.317,1.9-1.312,2.715-.008.156.25.248.555.525.72,5.132-7.691.217-18.7-8.939-20.024a13.18,13.18,0,0,0-15.344,13.126.959.959,0,0,0,.49,1,8.789,8.789,0,0,1,4.753,8.228,1.858,1.858,0,0,0,1.049,1.875,13.858,13.858,0,0,0,6.79,1.947c1.292.027,1.292.016,1.444,1.324.018,1.328.018,1.333-1.386,1.319a15.521,15.521,0,0,1-7.405-1.893c-.5-.276-.637-.2-.78.332a9.125,9.125,0,0,1-10.022,6.788,9.065,9.065,0,0,1-8.1-9.063,20.463,20.463,0,0,1,.221-4.919,9.041,9.041,0,0,1,9.453-7.022c.758.029.863-.169.889-.858a15.788,15.788,0,0,1,13.807-14.845,15.766,15.766,0,0,1,17.768,16.147,15.1,15.1,0,0,1-2.8,8.457,1,1,0,0,0-.03,1.36,21.1,21.1,0,0,1,1.271,2.11,1.311,1.311,0,0,1-1.23,2.085c-2.524.021-5.049,0-7.573.012A1.577,1.577,0,0,1-1068.674,1974.212Z" transform="translate(-107.682 -23.362)"/>
        <path id="Trazado_216442" data-name="Trazado 216442" d="M-1193.336,2154.235a1.321,1.321,0,0,1,1.3,1.307,1.325,1.325,0,0,1-1.369,1.32,1.325,1.325,0,0,1-1.257-1.349A1.319,1.319,0,0,1-1193.336,2154.235Z" transform="translate(-33.108 -186.689)" fill="#020202"/>
        <path id="Trazado_216443" data-name="Trazado 216443" d="M-1156.125,2155.519a1.327,1.327,0,0,1-1.264,1.343,1.327,1.327,0,0,1-1.361-1.244,1.32,1.32,0,0,1,1.3-1.383A1.323,1.323,0,0,1-1156.125,2155.519Z" transform="translate(-61.115 -186.689)" fill="#020202"/>
        <path id="Trazado_216444" data-name="Trazado 216444" d="M-1003.966,1991.842c-.149-.047-.414-.112-.666-.212-1.905-.757-3.8-1.535-5.715-2.274-.447-.173-.567-.327-.374-.814.75-1.9.731-1.905,2.637-1.143,1.066.427,2.144.829,3.191,1.3a.963.963,0,0,0,1.274-.253c1.621-1.675,3.3-3.293,4.924-4.965.407-.419.624-.395,1.02.011,1.345,1.378,1.362,1.361.026,2.7q-2.5,2.5-5,5A1.778,1.778,0,0,1-1003.966,1991.842Z" transform="translate(-176.493 -53.282)"/>
        <path id="Trazado_216445" data-name="Trazado 216445" d="M-1087.155,2055.934c.028-.6-.149-1.34.143-1.749s1.071-.124,1.636-.164a34.242,34.242,0,0,0,6.875-1.117,1.348,1.348,0,0,1,1.082.1,8.482,8.482,0,0,0,2.963.913c.3.034.527.081.508.47a25.785,25.785,0,0,1-.122,3.608,6.49,6.49,0,0,1-7.215,5.278,6.465,6.465,0,0,1-5.841-6.43c0-.3,0-.6,0-.9Z" transform="translate(-116.93 -107.608)" fill="#e5c49a"/>
        <path id="Trazado_216446" data-name="Trazado 216446" d="M-1084.643,2032.352a6.531,6.531,0,0,1,4.914-3.853,6.594,6.594,0,0,1,6.7,2.859c.11.179.341.368.179.58s-.4.022-.6-.037a1.327,1.327,0,0,1-.457-.175c-1.244-1.007-2.546-.778-3.926-.3a16.51,16.51,0,0,1-2.8.607A23.882,23.882,0,0,1-1084.643,2032.352Z" transform="translate(-118.911 -88.543)" fill="#495766"/>
        <path id="Trazado_216447" data-name="Trazado 216447" d="M-942.84,2058.086l1.592,2.65H-944.4Z" transform="translate(-228.285 -111.703)" fill="#4b6483"/>
        <path id="Trazado_216448" data-name="Trazado 216448" d="M-1078.308,2065.73a1.327,1.327,0,0,1-1.264,1.343,1.327,1.327,0,0,1-1.361-1.244,1.321,1.321,0,0,1,1.3-1.383A1.323,1.323,0,0,1-1078.308,2065.73Z" transform="translate(-121.803 -116.663)" fill="#020202"/>
        <path id="Trazado_216449" data-name="Trazado 216449" d="M-1043.67,2067.073a1.326,1.326,0,0,1-1.346-1.26,1.32,1.32,0,0,1,1.319-1.367,1.322,1.322,0,0,1,1.306,1.3A1.326,1.326,0,0,1-1043.67,2067.073Z" transform="translate(-149.815 -116.664)" fill="#020202"/>
      </g>
    </g>
  </g>
</svg>
