<svg xmlns="http://www.w3.org/2000/svg" width="1135" height="200" viewBox="0 0 1135 200">
  <rect id="Rectángulo_41877" data-name="Rectángulo 41877" width="1050" height="200" transform="translate(85)" fill="#fffae1" opacity="0.35"/>
  <g id="Grupo_146434" data-name="Grupo 146434" transform="translate(-149 -885)">
    <g id="Grupo_128133" data-name="Grupo 128133" transform="translate(180 948)">
      <rect id="Rectángulo_33803" data-name="Rectángulo 33803" width="173" height="88.724" transform="translate(-31 -13.987)" fill="none"/>
      <rect id="Rectángulo_41606" data-name="Rectángulo 41606" width="125.557" height="62.779" rx="31.389" transform="translate(0.001 6.726)" fill="#fcd1b1"/>
      <g id="Grupo_146441" data-name="Grupo 146441" transform="translate(1734.433 -1301.93)">
        <path id="Trazado_216450" data-name="Trazado 216450" d="M-1685.389,1312.781a1.3,1.3,0,0,1-1.126-1.523c.222-3.685.422-7.371.667-11.055a2.673,2.673,0,0,1,2.616-2.524c1-.052,2.009-.038,3.013-.017.453.01.655-.072.7-.6a9.911,9.911,0,0,1,12.389-8.793c1,.259,1.238.551,1.281,1.579-.176.787-.5,1.062-1.266,1.079a5.39,5.39,0,0,1-1.128-.153,7.163,7.163,0,0,0-8.6,7.094q0,2.2,0,4.4a2.692,2.692,0,0,0,.067.809.506.506,0,0,0,.441.42.5.5,0,0,0,.5-.339,2.314,2.314,0,0,0,.159-1.037c.005-1.494-.022-2.988.008-4.481a5.662,5.662,0,0,1,3.191-5.127,5.712,5.712,0,0,1,6.04.25c2.165,1.343,2.869,3.444,2.951,5.838.041,1.193.006,2.39.009,3.584a4.138,4.138,0,0,0,.033.731c.051.281.155.549.478.581.382.037.494-.266.585-.561a1.785,1.785,0,0,0,.071-.564c-.039-1.735.089-3.47-.119-5.207a8.294,8.294,0,0,0-1.09-3.207c-.573-1-.381-1.63.524-2.071a1.468,1.468,0,0,1,1.872.855,9.52,9.52,0,0,1,1.352,4.217c.028.568.23.735.784.709.922-.043,1.848-.034,2.771,0a2.74,2.74,0,0,1,2.8,2.78q.66,11.31,1.321,22.619c.031.542.146.879.765.83a2.224,2.224,0,0,1,.4.067c.963.109,1.793.937,2.635.9.821-.038,1.636-.74,2.56-.911a6.662,6.662,0,0,1,4.628.8.771.771,0,0,0,.876.01,6.835,6.835,0,0,1,8.891,1.825,6.809,6.809,0,0,1-.634,9c-4.273,4.335-8.6,8.615-12.9,12.921a6.562,6.562,0,0,1-5.55,1.742c-.669-.058-.963-.535-1.072-1.15a1.084,1.084,0,0,1,.8-1.358,4.443,4.443,0,0,1,1.613-.148,3.006,3.006,0,0,0,2.217-.863c4.384-4.373,8.778-8.735,13.126-13.144a4.1,4.1,0,0,0,.566-4.98,4.238,4.238,0,0,0-4.607-1.989,5.241,5.241,0,0,0-2.4,1.469c-2.687,2.691-5.395,5.362-8.059,8.075a6.6,6.6,0,0,1-4.956,2.067c-5.731-.017-11.462,0-17.194-.01a4.516,4.516,0,0,1-4.244-2.393,4.611,4.611,0,0,1,.694-5.712c.492-.544,1.045-1.029,1.542-1.569a4.2,4.2,0,0,0,.1-5.712,4.2,4.2,0,0,0-5.419-.708,5.968,5.968,0,0,0-1.073.87q-3.859,3.862-7.72,7.722a7.861,7.861,0,0,0-2.13,3.785,9.216,9.216,0,0,1-2.53,4.473q-9.409,9.376-18.8,18.771a2.461,2.461,0,0,0-.817,1.932c.045,2.471.009,4.944.023,7.416.031,1.745-.222,1.678,1.673,1.677,3.83,0,7.661-.025,11.491.017a2.844,2.844,0,0,0,2.218-.935c5.244-5.283,10.523-10.53,15.776-15.8a14.73,14.73,0,0,1,10.838-4.477q5.99-.005,11.98,0a2.606,2.606,0,0,1,1.638.372c.384.284.722.609.441,1.156a1.364,1.364,0,0,1-1.567,1.183c-4.125-.023-8.252.018-12.377-.018a12.188,12.188,0,0,0-9.178,3.8c-5.415,5.486-10.891,10.913-16.342,16.364a6.1,6.1,0,0,1-1.156,1.012h-17.285a1.012,1.012,0,0,1-.815-.815v-13.046c.285-.321.555-.657.858-.96q9.669-9.678,19.35-19.344a7.11,7.11,0,0,0,2.031-3.533,10,10,0,0,1,3.143-5.209,1.681,1.681,0,0,0,.6-1.249c.169-3.225.386-6.447.578-9.67.067-1.112.247-1.348,1.318-1.622.865,0,1.311.4,1.34,1.34a30.712,30.712,0,0,1-.2,3.653,27.708,27.708,0,0,1-.254,3.661c.33-.01.437-.259.6-.415,1.217-1.2,2.409-2.431,3.637-3.622a7.1,7.1,0,0,1,8.984-.826,7.092,7.092,0,0,1,2.421,8.886,10.6,10.6,0,0,1-2.4,2.951,2.553,2.553,0,0,0-.979,1.975c.428,1.338.906,1.714,2.3,1.717q7.371.017,14.743,0c1.092,0,1.238-.15,1.2-1.225-.082-2.656-.3-5.306-.446-7.958-.119-2.112-.249-4.223-.368-6.334-.141-2.49-.3-4.98-.438-7.47-.118-2.194-.267-4.385-.391-6.579-.082-1.461-.137-2.925-.268-4.384-.061-.677-.324-.934-1.012-.945-2.208-.037-2.2-.059-2.3,2.131a4.305,4.305,0,0,1-1.226,3.1c-2.088,1.455-4.413.986-5.475-1.087a4.1,4.1,0,0,1-.3-1.909c-.032-2.588.326-2.2-2.264-2.23-1.059-.013-2.119-.011-3.178,0-.851.01-.915.078-.926.946a10.179,10.179,0,0,1-.186,2.43,3.481,3.481,0,0,1-3.74,2.712,3.4,3.4,0,0,1-3.075-3.5c-.006-.6-.01-1.2,0-1.793.008-.537-.206-.807-.768-.8-.651.014-1.3,0-1.956,0-.468,0-.674.209-.711.683-.209,2.678-.338,5.361-.481,8.043-.045.842-.144,1.677-.219,2.514A1.171,1.171,0,0,1-1685.389,1312.781Z"/>
        <path id="Trazado_216451" data-name="Trazado 216451" d="M-1542.746,1374.944c1-.176,1.263-.481,1.324-1.507.208-3.493.429-6.985.624-10.479.026-.462.137-.708.649-.695q1.342.034,2.686,0c.447-.012.551.187.542.586-.018.814-.026,1.629.006,2.442a3.215,3.215,0,0,0,3.094,3.166,3.191,3.191,0,0,0,3.354-2.883,19.476,19.476,0,0,0,.054-2.6c-.01-.489.078-.728.655-.717q2.767.053,5.535,0c.557-.01.7.185.678.7-.035.7,0,1.411-.009,2.116a3.128,3.128,0,0,0,1.738,2.993,3.171,3.171,0,0,0,3.389-.207c.09-.058.184-.112.276-.168.476.052.407.445.421.738.147,3.057.345,6.112.531,9.167.189,3.109.295,6.224.6,9.324a8.1,8.1,0,0,1-6.065,8.762,5.067,5.067,0,0,1-1.207.158q-2.563.007-5.126,0a1.3,1.3,0,0,1-1-.246,1.925,1.925,0,0,1,.662-1.513c.509-.527,1.045-1.029,1.542-1.568a6.88,6.88,0,0,0-.183-9.62,6.828,6.828,0,0,0-9.552-.067c-1.549,1.477-3.009,3.047-4.693,4.5.063-1.192.121-2.385.192-3.576.077-1.3.146-2.6.256-3.9a1.421,1.421,0,0,0-1.136-1.7Q-1542.828,1376.546-1542.746,1374.944Z" transform="translate(-142.642 -62.163)" fill="#72e39f"/>
        <path id="Trazado_216452" data-name="Trazado 216452" d="M-1625.408,1522.675a4.309,4.309,0,0,1,4.659,1.859,4.411,4.411,0,0,1-.337,5.295c-.335.39-.715.743-1.079,1.108-3.837,3.84-7.7,7.658-11.5,11.531a4.652,4.652,0,0,1-3.817,1.6c-1.08-.07-1.417.255-1.648,1.259h-3.216c-.263-.994-.584-1.27-1.584-1.271-4.348-.005-8.7-.033-13.044.013a13.776,13.776,0,0,0-9.925,4.215q-8.209,8.221-16.421,16.438a1.531,1.531,0,0,1-1.2.513c-4.429-.022-8.859-.03-13.289.006-.693.006-.917-.181-.82-.848a9.854,9.854,0,0,0,.038-1.138,1.47,1.47,0,0,1,1.093-.2,26.98,26.98,0,0,0,4.865-.323,11.466,11.466,0,0,0,6.3-3.345q6.9-6.873,13.777-13.766a12.4,12.4,0,0,1,9.075-3.771c5.46,0,10.92-.043,16.379.016a12.832,12.832,0,0,0,9.771-4.061c3.107-3.192,6.279-6.321,9.445-9.455,1.4-1.386,2.484-2.886,2.272-4.994A.837.837,0,0,1-1625.408,1522.675Z" transform="translate(-12.365 -196.236)" fill="#fbb09e"/>
        <path id="Trazado_216453" data-name="Trazado 216453" d="M-1313.812,1318.986a3.132,3.132,0,0,1-.864,2.375c-1.469,1.488-2.93,2.986-4.439,4.433a3.113,3.113,0,0,1-4.459-.039,3.122,3.122,0,0,1,.065-4.46c1.443-1.476,2.9-2.943,4.384-4.373a2.941,2.941,0,0,1,3.384-.63A2.975,2.975,0,0,1-1313.812,1318.986Z" transform="translate(-325.359 -23.482)"/>
        <path id="Trazado_216454" data-name="Trazado 216454" d="M-1621.345,1443.308a3.27,3.27,0,0,1-.92,2.591c-1.454,1.465-2.9,2.939-4.383,4.374a3.116,3.116,0,0,1-4.4.012,3.1,3.1,0,0,1-.092-4.4q2.218-2.33,4.555-4.548a2.9,2.9,0,0,1,3.4-.537A2.945,2.945,0,0,1-1621.345,1443.308Z" transform="translate(-68.109 -127.599)"/>
        <path id="Trazado_216455" data-name="Trazado 216455" d="M-1653.272,1391.671c1.005,0,2.01-.018,3.015,0a3.166,3.166,0,0,1,3.186,3.056,3.116,3.116,0,0,1-2.988,3.238c-2.17.082-4.347.084-6.517,0a3.1,3.1,0,0,1-2.978-3.243,3.164,3.164,0,0,1,3.186-3.051C-1655.336,1391.653-1654.3,1391.671-1653.272,1391.671Z" transform="translate(-45.067 -86.763)"/>
        <path id="Trazado_216456" data-name="Trazado 216456" d="M-1301.55,1397.993c-1,0-2.01.02-3.014,0a3.152,3.152,0,0,1-3.257-3.224,3.142,3.142,0,0,1,3.289-3.1q2.933-.022,5.866,0a3.153,3.153,0,0,1,3.3,3.093,3.159,3.159,0,0,1-3.25,3.232C-1299.594,1398.013-1300.572,1397.993-1301.55,1397.993Z" transform="translate(-339.293 -86.753)"/>
        <path id="Trazado_216457" data-name="Trazado 216457" d="M-1313.922,1448.144a2.967,2.967,0,0,1-1.758,2.68,2.849,2.849,0,0,1-3.349-.389c-1.672-1.549-3.294-3.16-4.839-4.835a3.032,3.032,0,0,1,.223-4.2,3.008,3.008,0,0,1,4.142-.22c1.7,1.555,3.294,3.232,4.9,4.886A2.839,2.839,0,0,1-1313.922,1448.144Z" transform="translate(-325.247 -127.571)"/>
        <path id="Trazado_216458" data-name="Trazado 216458" d="M-1621.373,1323.551a3.045,3.045,0,0,1-1.823,2.847,2.85,2.85,0,0,1-3.337-.459q-2.435-2.285-4.728-4.718a3.069,3.069,0,0,1,.153-4.273,3.05,3.05,0,0,1,4.269-.136c1.6,1.507,3.133,3.089,4.673,4.659A2.833,2.833,0,0,1-1621.373,1323.551Z" transform="translate(-68.072 -23.475)"/>
        <path id="Trazado_216459" data-name="Trazado 216459" d="M-1477.545,1301.626c-.78.748-.839,1.113-.269,2.049a7.736,7.736,0,0,1,1.129,4.021c.016,1.574,0,3.149.007,4.724,0,.6-.118,1.153-.835,1.147s-.8-.576-.8-1.167c-.023-1.791.119-3.587-.072-5.372a5.892,5.892,0,0,0-6.089-5.262,5.8,5.8,0,0,0-5.55,5.634c-.061,1.6-.018,3.2-.026,4.8a3.942,3.942,0,0,1-.044.728.736.736,0,0,1-.816.639.7.7,0,0,1-.744-.714c.023-2.276-.3-4.579.173-6.822a7.423,7.423,0,0,1,9.146-5.677c1.094.266,1.4.144,1.936-.771A27.131,27.131,0,0,0-1477.545,1301.626Z" transform="translate(-185.442 -9.742)" fill="#dbe5ea"/>
        <path id="Trazado_216460" data-name="Trazado 216460" d="M-1625.318,1496.587a6.571,6.571,0,0,1-2.334,5.855c-3.28,3.175-6.485,6.427-9.7,9.674a12.508,12.508,0,0,1-9.331,3.869q-8.478-.04-16.957,0a11.791,11.791,0,0,0-8.486,3.522c-4.64,4.583-9.229,9.218-13.845,13.825a12.115,12.115,0,0,1-8.311,3.728c-1.409.062-2.816.068-4.224.109-.01-2.716-.009-5.431-.042-8.147a1.145,1.145,0,0,1,.489-.873q9.506-9.508,19.02-19.009a9.412,9.412,0,0,0,2.688-4.732,7.217,7.217,0,0,1,2.024-3.56q4.057-4.067,8.128-8.121a4.426,4.426,0,0,1,6.351-.071,4.458,4.458,0,0,1-.09,6.355c-.491.507-1.016.983-1.488,1.508a4.3,4.3,0,0,0-.826,4.906,4.238,4.238,0,0,0,4.087,2.717c5.921.027,11.843.018,17.764,0a6.086,6.086,0,0,0,4.42-1.948q4.137-4.16,8.3-8.3A3.931,3.931,0,0,1-1625.318,1496.587Z" transform="translate(-12.455 -170.149)" fill="#feddce"/>
        <path id="Trazado_216461" data-name="Trazado 216461" d="M-1463.927,1395.692c1.9,0,3.8-.041,5.695.019a7.567,7.567,0,0,0,7-5,8.442,8.442,0,0,0,.362-4.225c-.167-.978-.086-1.99-.17-2.989-.2-2.366-.236-4.746-.364-7.118-.147-2.721-.324-5.44-.486-8.159a.492.492,0,0,0-.191-.424,4.628,4.628,0,0,0,1.131-3.765c-.036-1.655-.008-1.655,1.653-1.655,2.166,0,2.154,0,2.279,2.176q.758,13.219,1.53,26.438c.112,1.925.215,3.851.35,5.775.051.725-.215,1.064-.96,1.063-5.217-.008-10.434,0-15.651-.01A2.031,2.031,0,0,1-1463.927,1395.692Z" transform="translate(-208.711 -62.259)" fill="#62c288"/>
        <path id="Trazado_216462" data-name="Trazado 216462" d="M-1335.223,1528.967c-.4-1,.259-1.78,1.111-2.549.964-.871,1.831-1.849,2.776-2.742a4.334,4.334,0,0,1,4.5-1.061c.456.138.506.271.149.624q-3.726,3.69-7.426,7.408a2.019,2.019,0,0,1-.312.259c-.177.116-.345.354-.56.266-.235-.1-.117-.385-.139-.585C-1335.17,1530.129-1335.182,1529.668-1335.223,1528.967Z" transform="translate(-316.272 -196.112)" fill="#fbb09e"/>
        <path id="Trazado_216463" data-name="Trazado 216463" d="M-1462.851,1331.023c-.92,0-1.841-.023-2.761.009-.484.017-.619-.134-.513-.6a3.486,3.486,0,0,1,3.33-2.6,3.52,3.52,0,0,1,3.319,2.619c.089.4.026.6-.453.581C-1460.9,1331-1461.876,1331.023-1462.851,1331.023Z" transform="translate(-206.844 -33.368)" fill="#fdfdfd"/>
        <path id="Trazado_216464" data-name="Trazado 216464" d="M-1336.73,1524.429c-.023-.424-.024-.85-.075-1.271-.061-.5.161-.54.564-.425.308.088.763.073.866.333.126.319-.339.479-.527.725s-.41.5-.617.753Z" transform="translate(-315.039 -196.357)" fill="#efa897"/>
        <path id="Trazado_216465" data-name="Trazado 216465" d="M-1303.759,1331.768a.953.953,0,0,1-.361.714q-2.015,2.009-4.023,4.024c-.368.37-.768.573-1.184.124-.386-.417-.158-.79.181-1.128q2.016-2.008,4.025-4.022c.254-.253.518-.49.924-.32A.676.676,0,0,1-1303.759,1331.768Z" transform="translate(-337.864 -36.103)" fill="#fdd308"/>
        <path id="Trazado_216466" data-name="Trazado 216466" d="M-1611.227,1456.33c.021.251-.166.447-.361.641q-2.012,2.011-4.022,4.025c-.367.369-.779.572-1.187.129-.371-.4-.162-.789.182-1.13q2.047-2.034,4.083-4.079c.239-.239.5-.43.864-.267A.7.7,0,0,1-1611.227,1456.33Z" transform="translate(-80.671 -140.235)" fill="#fdd408"/>
        <path id="Trazado_216467" data-name="Trazado 216467" d="M-1640.761,1408.077h-2.765c-.512,0-.966-.143-.959-.738s.467-.709.979-.708c1.87.006,3.741.009,5.611,0,.529,0,.967.151.961.731s-.464.723-.981.719C-1638.863,1408.071-1639.812,1408.077-1640.761,1408.077Z" transform="translate(-57.675 -99.283)" fill="#fcd208"/>
        <path id="Trazado_216468" data-name="Trazado 216468" d="M-1289.03,1408.088h-2.6c-.539,0-1.109-.017-1.1-.747.01-.674.542-.7,1.059-.7q2.682.008,5.364,0c.542,0,1.119.011,1.1.738s-.612.707-1.141.707Z" transform="translate(-351.917 -99.293)" fill="#fcd208"/>
        <path id="Trazado_216469" data-name="Trazado 216469" d="M-1303.759,1460.62a.647.647,0,0,1-.383.626.779.779,0,0,1-.943-.253q-1.493-1.5-2.989-2.99c-.4-.4-.814-.8-1.2-1.21a.669.669,0,0,1-.036-1.013.648.648,0,0,1,1.008,0c1.445,1.429,2.878,2.87,4.315,4.307A.806.806,0,0,1-1303.759,1460.62Z" transform="translate(-337.864 -140.192)" fill="#fcd308"/>
        <path id="Trazado_216470" data-name="Trazado 216470" d="M-1611.226,1336.052a.7.7,0,0,1-.41.706.658.658,0,0,1-.811-.172c-.658-.644-1.307-1.3-1.958-1.95-.747-.747-1.49-1.5-2.241-2.242-.356-.352-.5-.743-.114-1.129s.784-.2,1.126.143q2.037,2.044,4.079,4.084A.828.828,0,0,1-1611.226,1336.052Z" transform="translate(-80.673 -36.053)" fill="#fdd408"/>
      </g>
    </g>
  </g>
</svg>
