<svg xmlns="http://www.w3.org/2000/svg" width="104.766" height="114.234" viewBox="0 0 104.766 114.234">
  <g id="Grupo_146537" data-name="Grupo 146537" transform="translate(1116.489 -746.494)">
    <path id="Trazado_216683" data-name="Trazado 216683" d="M-1052.025,746.494a4.277,4.277,0,0,1,2.706,4.589c-.114,3.008-.012,6.023-.042,9.035-.006.627.109.846.814.939a33.438,33.438,0,0,1,28.6,28.032,39.635,39.635,0,0,1,.354,5.781c.021,4.648-.094,9.3.1,13.942a30.9,30.9,0,0,0,10.808,22.536,8.72,8.72,0,0,1,3.329,7.412,8.246,8.246,0,0,1-8.081,7.676q-10.43.055-20.861-.01c-.84,0-1.187.19-1.414,1.039a17.763,17.763,0,0,1-17.21,13.263,17.785,17.785,0,0,1-17.208-13.268c-.229-.857-.584-1.037-1.417-1.032-6.767.039-13.535.026-20.3.02a8.374,8.374,0,0,1-8.121-5.314,8.318,8.318,0,0,1,2.506-9.473,32.1,32.1,0,0,0,10.788-19.085,35.416,35.416,0,0,0,.43-6c.024-4.648-.139-9.3.086-13.942.542-11.167,5.619-19.892,14.758-26.247a31.623,31.623,0,0,1,14.12-5.332c.714-.094.813-.327.808-.946-.028-3.012.077-6.027-.042-9.035a4.248,4.248,0,0,1,2.707-4.584Z" transform="translate(-11.19)"/>
    <path id="Trazado_216684" data-name="Trazado 216684" d="M-1116.427,804.175a57.847,57.847,0,0,1,16.749-38.483,3.632,3.632,0,0,1,3.82-1.176,3.538,3.538,0,0,1,1.534,5.9,63.2,63.2,0,0,0-5.461,6.462,50.408,50.408,0,0,0-9.482,27.69c-.034.817-.038,1.636-.11,2.45a3.472,3.472,0,0,1-3.213,3.146,3.514,3.514,0,0,1-3.749-2.651A13.521,13.521,0,0,1-1116.427,804.175Z" transform="translate(0 -12.54)"/>
    <path id="Trazado_216685" data-name="Trazado 216685" d="M-819.715,804.206c0,.817.035,1.635-.007,2.45a3.556,3.556,0,0,1-3.578,3.515,3.462,3.462,0,0,1-3.534-3.526,53.4,53.4,0,0,0-3.47-18.491,51.248,51.248,0,0,0-10.358-16.473c-.329-.354-.67-.7-1-1.048-1.567-1.668-1.632-3.811-.162-5.258a3.588,3.588,0,0,1,5.25.253,57.952,57.952,0,0,1,8.016,10.1A58.405,58.405,0,0,1-819.715,804.206Z" transform="translate(-192.022 -12.532)"/>
    <path id="Trazado_216686" data-name="Trazado 216686" d="M-1036,889.785h-38.151c-.26,0-.521-.012-.781,0a1.266,1.266,0,0,1-1.384-.717,1.289,1.289,0,0,1,.5-1.568,39.786,39.786,0,0,0,6.055-6.527,39.272,39.272,0,0,0,7.615-23.657c.01-4.5-.058-9,.031-13.5a26.089,26.089,0,0,1,23.2-25.25,26.123,26.123,0,0,1,28.967,23.385c.373,3.585.1,7.209.12,10.815a68.332,68.332,0,0,0,.6,11.677,38.811,38.811,0,0,0,12.02,22.1c.353.33.708.658,1.078.97a1.263,1.263,0,0,1,.508,1.471,1.273,1.273,0,0,1-1.44.8c-.26-.013-.521,0-.781,0Z" transform="translate(-28.119 -50.475)" fill="#26c7db"/>
    <path id="Trazado_216687" data-name="Trazado 216687" d="M-974.2,1081.849h19.914c-.988,3.957-5.471,7.117-10.021,7.1C-968.8,1088.925-973.3,1085.708-974.2,1081.849Z" transform="translate(-99.862 -235.359)" fill="#167783"/>
  </g>
</svg>
