<svg xmlns="http://www.w3.org/2000/svg" width="1135" height="230" viewBox="0 0 1135 230">
  <path id="Rectángulo_41878" data-name="Rectángulo 41878" d="M0,0H1050a0,0,0,0,1,0,0V230a0,0,0,0,1,0,0H80A80,80,0,0,1,0,150V0A0,0,0,0,1,0,0Z" transform="translate(85)" fill="#feebde" opacity="0.505"/>
  <g id="Grupo_146436" data-name="Grupo 146436" transform="translate(-149 -870)">
    <g id="Grupo_128133" data-name="Grupo 128133" transform="translate(180 948)">
      <rect id="Rectángulo_33803" data-name="Rectángulo 33803" width="173" height="74.737" transform="translate(-31 0)" fill="none"/>
      <rect id="Rectángulo_41606" data-name="Rectángulo 41606" width="125.557" height="62.779" rx="31.389" transform="translate(0.001 6.726)" fill="#fcd1b1"/>
      <g id="Grupo_146437" data-name="Grupo 146437" transform="translate(2652.112 -1715.306)">
        <path id="Trazado_216414" data-name="Trazado 216414" d="M-2561.8,1748.61c.952.31,1.1.513,1.1,1.606q0,12.666-.016,25.333c0,.687.134.9.856.879a19.109,19.109,0,0,1,3.643.069,4.628,4.628,0,0,1,3.908,4.866,4.677,4.677,0,0,1-4.479,4.362c-.268.009-.535,0-.8,0q-27.523,0-55.046-.014c-.592,0-.808.12-.914.75a4.412,4.412,0,0,1-3.634,3.513c-.051.01-.089.087-.133.134h-1.753a4.549,4.549,0,0,1-3.7-3.575.95.95,0,0,0-.764-.757,4.948,4.948,0,0,1-3.134-2.333,7.92,7.92,0,0,1-.432-1.37v-2.046c.242-.1.205-.36.281-.547a4.524,4.524,0,0,1,3.56-2.967c.408-.073.579-.186.554-.632-.042-.749,0-1.5-.015-2.254a1.22,1.22,0,0,1,1.025-1.353c.822-.121,1.329.3,1.368,1.229.055,1.3.043,2.609,0,3.914a1.43,1.43,0,0,1-1.015,1.309c-.454.071-.918-.023-1.372.077a2.349,2.349,0,0,0-1.986,2.476,2.3,2.3,0,0,0,2.474,2.053c1.249.029,1.546.216,1.869,1.171.049.383,0,.77.045,1.154a2.227,2.227,0,0,0,3.009,1.879,2.38,2.38,0,0,0,1.473-2.26c-.023-1.474.64-1.988,2.212-1.986q27.8.023,55.593.01a9.968,9.968,0,0,0,1.24-.031,2.223,2.223,0,0,0,2.02-1.988,2.2,2.2,0,0,0-1.481-2.273,4.5,4.5,0,0,0-1.728-.207h-28.709q-13.441,0-26.883,0c-1.977,0-2.229-.253-2.229-2.231q0-27.65,0-55.3a11.5,11.5,0,0,0-.019-1.168,2.438,2.438,0,0,0-1.666-2.267,2.212,2.212,0,0,0-2.757,1.792,7.579,7.579,0,0,0-.057,1.384q0,23.474,0,46.948a6.319,6.319,0,0,1-.049,1.238,1.084,1.084,0,0,1-1.479.922c-.746-.164-.9-.7-.9-1.369q.011-9.422,0-18.844,0-14.9,0-29.8a4.651,4.651,0,0,1,4.7-4.8,4.682,4.682,0,0,1,4.607,4.546c.017.316.008.633.008.949q0,27.389-.013,54.779c0,.626.1.9.806.842a21.227,21.227,0,0,1,2.7-.005c.5.024.651-.1.646-.627-.028-2.775-.017-5.551-.012-8.326a4.392,4.392,0,0,1,4.626-4.7c1.46-.012,2.922-.023,4.382.011a4.313,4.313,0,0,1,4.291,4.344q.039,4.309-.007,8.618c-.006.553.137.7.684.678,1-.047,2-.046,2.993,0,.54.024.693-.115.69-.676-.026-4.358-.015-8.716-.015-13.074,0-1.29-.009-2.581,0-3.871a4.334,4.334,0,0,1,4.5-4.506q2.118-.014,4.236,0a4.377,4.377,0,0,1,4.567,4.608q.012,8.4-.01,16.8c0,.55.1.756.7.723a29.555,29.555,0,0,1,2.993,0c.531.024.628-.159.627-.652-.018-5.356-.011-10.712-.011-16.068,0-5.989-.008-11.978,0-17.967a4.4,4.4,0,0,1,4.671-4.659c1.388,0,2.776-.007,4.163,0a4.835,4.835,0,0,1,1.011.1,4.251,4.251,0,0,1,3.43,3.932c.084,1.383.042,2.774.039,4.161a1.093,1.093,0,0,1-.962,1.183c-.793.183-1.269-.163-1.341-1.035s-.024-1.743-.025-2.614a6.8,6.8,0,0,0-.166-1.73,1.95,1.95,0,0,0-1.983-1.588c-.992-.028-1.985.006-2.979-.01-.462.016-.925.007-1.385.029a2.058,2.058,0,0,0-2.027,1.756,5.83,5.83,0,0,0-.074,1.163q0,16.267,0,32.533c0,.122.01.244,0,.365-.042.579.2.849.8.827.631-.022,1.264-.025,1.9.01,1.582-.043,3.163-.008,4.744-.019,1.122-.007,1.145-.022,1.145-1.139q0-12.153,0-24.306a6.277,6.277,0,0,1,.046-1.165A1.02,1.02,0,0,1-2561.8,1748.61Z" transform="translate(0 0)"/>
        <path id="Trazado_216415" data-name="Trazado 216415" d="M-2323.117,1847.353c-.966.313-1.091.49-1.091,1.6,0,8.434-.012,16.867.018,25.3,0,.741-.177.939-.914.909-1.722-.069-3.448-.041-5.173-.052a1.3,1.3,0,0,1-.234-.967q-.006-16.677,0-33.354a5.607,5.607,0,0,1,.291-1.793,1.417,1.417,0,0,1,.819-.968c.972-.008,1.945-.03,2.917-.021a2.172,2.172,0,0,1,2.263,2.247c.038,1.215,0,2.433.018,3.649.013.9.307,1.195,1.215,1.292A7.248,7.248,0,0,0-2323.117,1847.353Z" transform="translate(-238.682 -98.743)" fill="#b2e49e"/>
        <path id="Trazado_216416" data-name="Trazado 216416" d="M-2504.409,1758.534a4.992,4.992,0,0,1-3.878-1.6c-.268-.29-.448-.389-.85-.207-2.562,1.162-5.14,2.291-7.718,3.418a.6.6,0,0,0-.442.743,4.988,4.988,0,0,1-3.734,5.313,5,5,0,0,1-5.764-2.746,4.991,4.991,0,0,1,1.749-6.253,4.91,4.91,0,0,1,6.381.723.731.731,0,0,0,1.027.187q3.777-1.712,7.583-3.362a.606.606,0,0,0,.447-.738,4.979,4.979,0,0,1,6.741-5.128.672.672,0,0,0,.915-.212q5.29-6.328,10.621-12.623c.307-.363.233-.58.026-.934a4.974,4.974,0,0,1,2.111-7.013,4.994,4.994,0,0,1,6.861,2.722,4.991,4.991,0,0,1-3.278,6.56,4.623,4.623,0,0,1-3.274-.184.516.516,0,0,0-.725.176q-5.369,6.405-10.767,12.787c-.325.383-.094.585.062.872a4.839,4.839,0,0,1-.006,5A4.738,4.738,0,0,1-2504.409,1758.534Z" transform="translate(-80.353 -9.89)"/>
        <path id="Trazado_216417" data-name="Trazado 216417" d="M-2600.076,1779.131c1-.031,1.3-.368,1.3-1.488q0-24.2,0-48.394a2.493,2.493,0,0,1,2.766-2.734,1.393,1.393,0,0,1,.334.12,2.914,2.914,0,0,0-1.12,2.688q.02,27.567.009,55.135c0,.317,0,.633,0,.949-.023,1.323-.742,1.745-1.964,1.154q-.012-1.88-.024-3.761c-.006-1.005-.191-1.246-1.171-1.512A5.5,5.5,0,0,0-2600.076,1779.131Z" transform="translate(-21.756 -9.011)" fill="#407092"/>
        <path id="Trazado_216418" data-name="Trazado 216418" d="M-2605.2,1787.1c1.976-.045,1.724.305,1.725-1.753q.008-27.983,0-55.966a3.151,3.151,0,0,1,.463-1.725.884.884,0,0,1,.89-.481,2.4,2.4,0,0,1,1.834,2.263c.022.315.008.633.008.949v55.8c0,.268-.008.536,0,.8a1.043,1.043,0,0,0,1.123,1.147c.267.013.535,0,.8,0h56.019a4.646,4.646,0,0,1,1.375.123,2.483,2.483,0,0,1,1.765,2.624,2.5,2.5,0,0,1-2.285,2.192c-.242.018-.487.006-.73.006h-56.237c-1.619,0-1.8.174-1.837,1.773a2.426,2.426,0,0,1-1.841,2.48c-.578.2-.906-.107-1.164-.569a2.658,2.658,0,0,1-.378-1.448.786.786,0,0,0-.8-.962,1.1,1.1,0,0,1-.735-.256c-.209-1-.975-1.052-1.777-1.043a1.248,1.248,0,0,1-.667-.638,4.112,4.112,0,0,1-.089-3.507c.311-.807,1-.706,1.63-.77A1.246,1.246,0,0,0-2605.2,1787.1Z" transform="translate(-15.315 -9.548)" fill="#4a7fa9"/>
        <path id="Trazado_216419" data-name="Trazado 216419" d="M-2419.336,1926.218c1.068-.009,2.138-.054,3.205-.017a2.169,2.169,0,0,1,2.038,2.314c.012,2.334,0,4.667,0,7,0,3.306-.012,6.612.013,9.917,0,.532-.108.705-.67.69-1.772-.05-3.547-.036-5.32-.047a1.313,1.313,0,0,1-.231-.966c0-5.583-.012-11.166.006-16.749A2.172,2.172,0,0,1-2419.336,1926.218Z" transform="translate(-166.426 -169.703)" fill="#b0e3f8"/>
        <path id="Trazado_216420" data-name="Trazado 216420" d="M-2340.321,1838.03a3.971,3.971,0,0,0-.875,2.7q0,17.191,0,34.382c-.778.011-1.557,0-2.333.043-.479.027-.559-.179-.554-.6.019-1.679.008-3.359.008-5.038q0-14.456,0-28.912a2.277,2.277,0,0,1,2.585-2.6C-2341.1,1838.006-2340.709,1838.021-2340.321,1838.03Z" transform="translate(-227.764 -98.741)" fill="#94d5a3"/>
        <path id="Trazado_216421" data-name="Trazado 216421" d="M-2509.873,1969.631c1.068-.008,2.137-.048,3.2-.016a2.112,2.112,0,0,1,2.065,2.122c.021,2.939,0,5.879.017,8.818,0,.369-.082.507-.479.5-1.845-.031-3.69-.031-5.536-.042a1.218,1.218,0,0,1-.226-.894c0-2.719-.025-5.438.011-8.157A2.642,2.642,0,0,1-2509.873,1969.631Z" transform="translate(-93.569 -204.642)" fill="#fedf7d"/>
        <path id="Trazado_216422" data-name="Trazado 216422" d="M-2430.556,1926.218a3.744,3.744,0,0,0-.742,2.372c.023,5.829.012,11.657.012,17.486-.8.011-1.605-.007-2.4.043-.476.03-.556-.152-.553-.58.018-2.676.009-5.352.009-8.028q0-4.379,0-8.758c0-1.763.813-2.567,2.587-2.566C-2431.283,1926.187-2430.919,1926.208-2430.556,1926.218Z" transform="translate(-155.207 -169.704)" fill="#8fd7f8"/>
        <path id="Trazado_216423" data-name="Trazado 216423" d="M-2520.954,1969.63a5.4,5.4,0,0,0-.745,3.06c.042,2.774.014,5.549.015,8.323-.825.011-1.65.008-2.475.039-.353.013-.451-.111-.45-.456.012-2.939-.009-5.879.016-8.818a2.161,2.161,0,0,1,2.184-2.172C-2521.924,1969.591-2521.438,1969.621-2520.954,1969.63Z" transform="translate(-82.488 -204.641)" fill="#fecf64"/>
        <path id="Trazado_216424" data-name="Trazado 216424" d="M-2612.4,2039.39c-.721.083-1.355.286-1.57,1.1a4.03,4.03,0,0,0,.2,3.1,8.06,8.06,0,0,0,.5.717,2.446,2.446,0,0,1-2.626-2.258,2.505,2.505,0,0,1,2.338-2.654C-2613.178,2039.357-2612.788,2039.39-2612.4,2039.39Z" transform="translate(-9.016 -260.792)" fill="#406f92"/>
        <path id="Trazado_216425" data-name="Trazado 216425" d="M-2593.423,2069.959c.145,0,.29,0,.434.007,1.26.093,1.265.1,1.3,1.336.026,1.043.576,1.815,1.347,1.892a2.409,2.409,0,0,1-3.092-2.149C-2593.464,2070.686-2593.429,2070.321-2593.423,2069.959Z" transform="translate(-27.091 -285.402)" fill="#406f92"/>
        <path id="Trazado_216426" data-name="Trazado 216426" d="M-2507.148,1886.3a2.737,2.737,0,0,1,2.3,2.686,2.742,2.742,0,0,1-2.311,2.747c-.656.212-1.047-.094-1.361-.643a3.994,3.994,0,0,1-.054-4.106A1.127,1.127,0,0,1-2507.148,1886.3Z" transform="translate(-94.953 -137.555)" fill="#de74a4"/>
        <path id="Trazado_216427" data-name="Trazado 216427" d="M-2417.411,1846.308a2.722,2.722,0,0,1,2.984,2.761,2.723,2.723,0,0,1-2.984,2.761C-2419.135,1850.819-2418.95,1847.083-2417.411,1846.308Z" transform="translate(-167.768 -105.419)" fill="#de74a4"/>
        <path id="Trazado_216428" data-name="Trazado 216428" d="M-2326.709,1739.01a2.7,2.7,0,0,1,2.444,2.538,2.7,2.7,0,0,1-2.189,2.9c-.95.128-1.111.066-1.52-.715a4.035,4.035,0,0,1,0-3.974C-2327.719,1739.282-2327.361,1738.871-2326.709,1739.01Z" transform="translate(-240.306 -19.053)" fill="#de74a4"/>
        <path id="Trazado_216429" data-name="Trazado 216429" d="M-2332.3,1738.974a1.267,1.267,0,0,0-1.068.765,4.1,4.1,0,0,0,.274,4.366c.309.418.694.234,1.049.308a2.664,2.664,0,0,1-2.825-.987,2.842,2.842,0,0,1-.192-3.143A2.69,2.69,0,0,1-2332.3,1738.974Z" transform="translate(-234.714 -19.017)" fill="#dc578f"/>
        <path id="Trazado_216430" data-name="Trazado 216430" d="M-2512.722,1886.267a1.174,1.174,0,0,0-1.226.7,4.169,4.169,0,0,0,.277,4.454c.265.321.606.244.934.282a2.738,2.738,0,0,1-2.835-1.149,2.819,2.819,0,0,1,.014-3.148A2.678,2.678,0,0,1-2512.722,1886.267Z" transform="translate(-89.379 -137.519)" fill="#dc578f"/>
        <path id="Trazado_216431" data-name="Trazado 216431" d="M-2423.174,1846.327a4.264,4.264,0,0,0-.886,3.949c.153.621.633,1.026.885,1.574a2.756,2.756,0,0,1-2.623-2.762A2.753,2.753,0,0,1-2423.174,1846.327Z" transform="translate(-162.005 -105.437)" fill="#dc578f"/>
      </g>
    </g>
  </g>
</svg>
