<svg xmlns="http://www.w3.org/2000/svg" width="1135" height="198" viewBox="0 0 1135 198">
  <path id="Rectángulo_41875" data-name="Rectángulo 41875" d="M80,0h970a0,0,0,0,1,0,0V198a0,0,0,0,1,0,0H0a0,0,0,0,1,0,0V80A80,80,0,0,1,80,0Z" transform="translate(85)" fill="#feebde" opacity="0.35"/>
  <g id="Grupo_146430" data-name="Grupo 146430" transform="translate(-149 -887)">
    <g id="Grupo_128133" data-name="Grupo 128133" transform="translate(180 948)">
      <rect id="Rectángulo_33803" data-name="Rectángulo 33803" width="173" height="74.737" transform="translate(-31 0)" fill="none"/>
      <rect id="Rectángulo_41606" data-name="Rectángulo 41606" width="125.557" height="62.779" rx="31.389" transform="translate(0.001 10)" fill="#fcd1b1"/>
      <g id="Grupo_146443" data-name="Grupo 146443" transform="translate(2029.532 -2065.081)">
        <path id="Trazado_216471" data-name="Trazado 216471" d="M-1966.545,2138.584h-38.137c-1.477,0-1.847-.372-1.847-1.857q0-20.074,0-40.148c0-1.488.366-1.856,1.844-1.857,1.774,0,3.548-.014,5.322.01.442.006.6-.094.586-.566-.037-1.02-.018-2.042-.01-3.063.009-1.059.47-1.52,1.515-1.541,1.064-.021,1.064-.021,1.064-1.114,0-1.962-.022-3.924.014-5.885.01-.573-.092-.77-.726-.76-2.633.043-5.267.02-7.9.017-1.276,0-1.7-.421-1.708-1.672q-.005-2.217,0-4.434c0-1.174.44-1.631,1.584-1.631q38.42,0,76.839,0c1.1,0,1.562.466,1.567,1.569q.011,2.3,0,4.6c-.006,1.1-.466,1.57-1.565,1.573-2.715.006-5.429.015-8.143-.01-.487,0-.633.1-.626.612.032,2.2.024,4.407,0,6.61,0,.412.1.595.529.535a3.783,3.783,0,0,1,.644,0,1.3,1.3,0,0,1,1.411,1.4c.02,1.048.031,2.1-.006,3.143-.017.482.09.64.608.63,1.854-.036,3.708-.019,5.563-.012,1.108,0,1.579.462,1.58,1.556q0,20.356,0,40.712c0,1.165-.465,1.591-1.709,1.591Z"/>
        <path id="Trazado_216472" data-name="Trazado 216472" d="M-1957.22,2220.469q-18.26,0-36.521.015c-.677,0-.9-.118-.9-.862q.041-18.5,0-37c0-.731.2-.87.891-.87q36.561.028,73.122,0c.648,0,.857.127.855.822q-.034,18.54,0,37.08c0,.684-.19.83-.848.829Q-1938.919,2220.454-1957.22,2220.469Z" transform="translate(-9.33 -84.466)" fill="#536baf"/>
        <path id="Trazado_216473" data-name="Trazado 216473" d="M-1900.848,2109.931c7.037,0,14.075.011,21.112-.018.673,0,.838.158.823.826-.048,2.094-.036,4.19-.005,6.284.008.522-.125.668-.656.662-1.614-.02-1.937.325-1.937,1.91,0,.914-.016,1.827.007,2.74.01.37-.075.561-.48.5a2.769,2.769,0,0,0-.4,0q-18.493,0-36.987.019c-.712,0-.916-.166-.861-.87.068-.881.02-1.771.016-2.657-.006-1.209-.444-1.7-1.646-1.631-.77.043-.981-.154-.956-.943.066-2.012.046-4.029.008-6.042-.012-.61.124-.8.772-.793C-1914.977,2109.941-1907.912,2109.931-1900.848,2109.931Z" transform="translate(-65.668 -28.11)" fill="#fcd1b1"/>
        <path id="Trazado_216474" data-name="Trazado 216474" d="M-1988.5,2086.013c.3-.009.59-.025.885-.025q35.824,0,71.647-.019c.785,0,1.06.145,1.019.99-.078,1.6-.022,1.607-1.591,1.607h-58.511c-.4,0-.805-.016-1.208-.024a49.932,49.932,0,0,1-9.909-1.508,16.859,16.859,0,0,1-1.766-.544C-1988.168,2086.4-1988.476,2086.368-1988.5,2086.013Z" transform="translate(-14.146 -9.327)" fill="#536baf"/>
        <path id="Trazado_216475" data-name="Trazado 216475" d="M-1958.6,2159.3c-.073-1.453-.073-1.453,1.347-1.453,1.933,0,3.866.014,5.8-.01.455-.006.575.126.582.579.03,2.011.046,2.014-1.959,2.01-1.5,0-3.005-.016-4.508-.025A1.81,1.81,0,0,1-1958.6,2159.3Z" transform="translate(-37.582 -65.702)" fill="#f1d276"/>
        <path id="Trazado_216476" data-name="Trazado 216476" d="M-1719.14,2159.3c-.073-1.453-.073-1.453,1.348-1.453,1.933,0,3.866.014,5.8-.01.455-.006.575.126.582.579.03,2.011.046,2.014-1.959,2.01-1.5,0-3.005-.016-4.508-.025A1.81,1.81,0,0,1-1719.14,2159.3Z" transform="translate(-225.434 -65.702)" fill="#f1d276"/>
        <path id="Trazado_216477" data-name="Trazado 216477" d="M-1946.662,2115.824c-.008-1.826-.006-3.653-.033-5.479-.006-.384.1-.484.491-.5,2.1-.083,2.1-.1,2.1,1.949,0,1.639-.042,3.279.019,4.916.028.737-.183,1.019-.909.888a3.82,3.82,0,0,0-.4-.031A2.5,2.5,0,0,1-1946.662,2115.824Z" transform="translate(-46.941 -28.037)" fill="#e3e6f4"/>
        <path id="Trazado_216478" data-name="Trazado 216478" d="M-1707.2,2115.824c-.008-1.826-.006-3.653-.033-5.479-.006-.384.1-.484.491-.5,2.1-.083,2.1-.1,2.1,1.949,0,1.639-.042,3.279.019,4.916.027.737-.183,1.019-.909.888a3.82,3.82,0,0,0-.4-.031A2.5,2.5,0,0,1-1707.2,2115.824Z" transform="translate(-234.792 -28.037)" fill="#e3e6f4"/>
        <path id="Trazado_216479" data-name="Trazado 216479" d="M-1993.278,2086.09a25.8,25.8,0,0,0,5.942,1.561,47.165,47.165,0,0,0,6.013.846.942.942,0,0,1,.287.123c-4.336.008-8.672.011-13.008.032-.428,0-.579-.146-.542-.558.024-.266,0-.535,0-.8C-1994.582,2086.025-1994.582,2086.025-1993.278,2086.09Z" transform="translate(-9.367 -9.404)" fill="#41578d"/>
        <path id="Trazado_216480" data-name="Trazado 216480" d="M-1946.63,2137.681l1.266,1.745c-1.294.073-1.3.073-1.289-1.182C-1946.653,2138.056-1946.639,2137.868-1946.63,2137.681Z" transform="translate(-46.973 -49.893)" fill="#c8cde9"/>
        <path id="Trazado_216481" data-name="Trazado 216481" d="M-1707.17,2137.682l1.266,1.745c-1.294.072-1.3.072-1.289-1.182C-1707.193,2138.056-1707.178,2137.869-1707.17,2137.682Z" transform="translate(-234.824 -49.894)" fill="#c8cde9"/>
        <path id="Trazado_216482" data-name="Trazado 216482" d="M-1958.6,2164.624l1.261,1.1a.964.964,0,0,1-.159.022C-1958.814,2165.716-1958.638,2165.995-1958.6,2164.624Z" transform="translate(-37.577 -71.029)" fill="#edbb5a"/>
        <path id="Trazado_216483" data-name="Trazado 216483" d="M-1719.145,2164.624l1.261,1.1a.959.959,0,0,1-.158.022C-1719.354,2165.716-1719.178,2165.995-1719.145,2164.624Z" transform="translate(-225.429 -71.029)" fill="#edbb5a"/>
        <path id="Trazado_216484" data-name="Trazado 216484" d="M-1947.72,2227.338h-32.97c-1.535,0-1.886-.353-1.886-1.9q0-14.871,0-29.742c0-1.548.348-1.9,1.884-1.9h65.941c1.48,0,1.846.368,1.846,1.857q0,14.911,0,29.823c0,1.49-.367,1.861-1.844,1.861Z" transform="translate(-18.793 -93.914)"/>
        <path id="Trazado_216485" data-name="Trazado 216485" d="M-1910.867,2284.589c-.16.011-.322,0-.483,0" transform="translate(-74.668 -165.14)" fill="#e3e6f4"/>
        <path id="Trazado_216486" data-name="Trazado 216486" d="M-1967.4,2221.866c-.352.342.656-2.88.514-3.086a19.436,19.436,0,0,1-3.292-6.445c-.009-2.257-.01-4.514-.037-6.771,0-.388.108-.542.5-.488a2.954,2.954,0,0,0,.4,0q31.366,0,62.732-.018c.732,0,.908.179.906.908q-.041,13.383-.008,26.767c0,.5-.033.742-.661.741q-18.1-.033-36.2-.018c-.134,0-.267-.017-.4-.025a34.237,34.237,0,0,1-8.834-2.794,40.86,40.86,0,0,1-4.625-2.4,3.287,3.287,0,0,1-1.434-1.109c.018-.353-12.484,1.507-12.3,1.251" transform="translate(-28.489 -102.751)" fill="#e3e6f4"/>
        <path id="Trazado_216487" data-name="Trazado 216487" d="M-1927.865,2230.8" transform="translate(-61.713 -122.943)" fill="#e3e6f4"/>
        <path id="Trazado_216488" data-name="Trazado 216488" d="M-1970.64,2239.435a38.208,38.208,0,0,0,2.147,4.353,19.092,19.092,0,0,0,1.668,2.418c.317.265.04.7.243.973,2.369,3.131,8.726,6.808,8.755,7.825.111,3.831-4.853,1.284-1.448-.464.3-.152.567-.437.959-.292,1.255.709,2.489,1.454,3.762,2.135a45.608,45.608,0,0,0,8.383,3.369c.914.276,1.837.523,2.756.784q-5.522.013-11.044.026-7.741.006-15.481,0c-.4,0-.75.109-.747-.57.031-6.8.019-13.6.021-20.4A1,1,0,0,1-1970.64,2239.435Z" transform="translate(-28.12 -129.717)" fill="#c7cce9"/>
        <path id="Trazado_216489" data-name="Trazado 216489" d="M-1936.946,2288.893a2.533,2.533,0,0,1-3.713-2.193c-.013-.291.014-.584.022-.877q1.574,1.386,3.146,2.775A.919.919,0,0,0-1936.946,2288.893Z" transform="translate(-51.673 -166.108)" fill="#c6cbe8"/>
        <path id="Trazado_216490" data-name="Trazado 216490" d="M-1970.3,2220.982s3.6,19.888,34.291,25.2l-31.376-.171-3.029-6.249Z" transform="translate(-28.332 -115.241)" fill="#c7cce9"/>
      </g>
    </g>
  </g>
</svg>
