<svg xmlns="http://www.w3.org/2000/svg" width="453" height="791" viewBox="0 0 453 791">
  <g id="Grupo_146513" data-name="Grupo 146513" transform="translate(-967 -1341)">
    <g id="Grupo_146468" data-name="Grupo 146468" transform="translate(275.826 1178.095)">
      <g id="Grupo_146448" data-name="Grupo 146448" transform="translate(790.307 168.179)">
        <g id="Grupo_146444" data-name="Grupo 146444" transform="translate(0 13.41)">
          <path id="Trazado_216491" data-name="Trazado 216491" d="M1104.889,193.827H790.726a.42.42,0,0,1-.337-.669l14.031-19a.413.413,0,0,1,.337-.171h288.009a.421.421,0,0,1,.355.194l12.12,19a.417.417,0,0,1,.014.427A.421.421,0,0,1,1104.889,193.827Zm-313.331-.84h312.565l-11.585-18.158H804.967Z" transform="translate(-790.307 -173.991)" fill="#636363"/>
        </g>
        <g id="Grupo_146445" data-name="Grupo 146445" transform="translate(16.9 0)">
          <path id="Trazado_216492" data-name="Trazado 216492" d="M1083.742,169.017H798.05a.419.419,0,0,1,0-.838h285.692a.419.419,0,0,1,0,.838Z" transform="translate(-797.632 -168.179)" fill="#636363"/>
        </g>
        <g id="Grupo_146446" data-name="Grupo 146446" transform="translate(24.103)">
          <path id="Trazado_216493" data-name="Trazado 216493" d="M801.174,182.427a.419.419,0,0,1-.334-.671l10.136-13.41a.418.418,0,0,1,.667.505l-10.134,13.41A.421.421,0,0,1,801.174,182.427Z" transform="translate(-800.754 -168.179)" fill="#636363"/>
        </g>
        <g id="Grupo_146447" data-name="Grupo 146447" transform="translate(284.832 0.002)">
          <path id="Trazado_216494" data-name="Trazado 216494" d="M922.237,182.426a.416.416,0,0,1-.358-.2l-8.064-13.41a.42.42,0,0,1,.72-.431l8.062,13.41a.418.418,0,0,1-.143.575A.411.411,0,0,1,922.237,182.426Z" transform="translate(-913.757 -168.18)" fill="#636363"/>
        </g>
      </g>
      <g id="Grupo_146452" data-name="Grupo 146452" transform="translate(830.686 226.687)">
        <g id="Grupo_146449" data-name="Grupo 146449">
          <rect id="Rectángulo_41879" data-name="Rectángulo 41879" width="116.125" height="184.379" fill="#b2c3fb"/>
          <rect id="Rectángulo_41880" data-name="Rectángulo 41880" width="116.125" height="39.189" fill="#d8e6ff"/>
        </g>
        <g id="Grupo_146450" data-name="Grupo 146450" transform="translate(27.176 73.107)">
          <path id="Trazado_216495" data-name="Trazado 216495" d="M855.859,252.051c-.838-12.081-8.613-21.55-18.1-21.55s-17.256,9.469-18.094,21.55h-.083v60.342h36.356V252.051Z" transform="translate(-819.586 -218.321)" fill="#f4f7ff"/>
          <rect id="Rectángulo_41881" data-name="Rectángulo 41881" width="5.997" height="13.305" transform="translate(15.179)" fill="#79a7f2"/>
          <path id="Trazado_216496" data-name="Trazado 216496" d="M843.905,250.9c0,8.8-4.7,15.927-10.5,15.927S822.916,259.7,822.916,250.9s4.7-15.929,10.493-15.929S843.905,242.1,843.905,250.9Z" transform="translate(-815.233 -212.481)" fill="#b7d2ff"/>
        </g>
        <g id="Grupo_146451" data-name="Grupo 146451" transform="translate(61.79 86.412)">
          <path id="Trazado_216497" data-name="Trazado 216497" d="M865.727,254.023c-.717-10.371-7.392-18.5-15.533-18.5s-14.817,8.131-15.535,18.5h-.071v51.808H865.8V254.023Z" transform="translate(-834.588 -225.063)" fill="#79a7f2"/>
          <rect id="Rectángulo_41882" data-name="Rectángulo 41882" width="5.149" height="11.423" transform="translate(13.031)" fill="#b7d2ff"/>
          <path id="Trazado_216498" data-name="Trazado 216498" d="M855.467,253.031c0,7.554-4.035,13.678-9.01,13.678s-9.01-6.124-9.01-13.678,4.033-13.675,9.01-13.675S855.467,245.48,855.467,253.031Z" transform="translate(-830.85 -220.05)" fill="#cbdcfa"/>
        </g>
      </g>
      <g id="Grupo_146458" data-name="Grupo 146458" transform="translate(831.141 226.701)">
        <g id="Grupo_146454" data-name="Grupo 146454">
          <g id="Grupo_146453" data-name="Grupo 146453">
            <rect id="Rectángulo_41883" data-name="Rectángulo 41883" width="116.125" height="184.379" transform="translate(0.004 0.003)" fill="#fcd1b1"/>
            <rect id="Rectángulo_41884" data-name="Rectángulo 41884" width="116.125" height="39.189" fill="#feebde"/>
          </g>
          <rect id="Rectángulo_41885" data-name="Rectángulo 41885" width="116.125" height="54.006" transform="translate(0.004 130.376)" fill="#feebde"/>
        </g>
        <g id="Grupo_146455" data-name="Grupo 146455" transform="translate(21.072 62.37)">
          <path id="Trazado_216499" data-name="Trazado 216499" d="M831.7,220.575q8.573,0,11.527,4.495t2.956,14.275q0,9.781-2.956,14.19t-11.486,4.412q-8.531,0-11.569-4.453t-3.036-14.148q0-9.7,2.995-14.234T831.7,220.575Zm2.831,19.31v-3.579a13.094,13.094,0,0,0-.291-3.579c-.2-.5-.418-1.027-.667-1.58a1.632,1.632,0,0,0-1.666-.833,2.851,2.851,0,0,0-1.871.5q-1.166.834-1.165,7.99v1.082a42.765,42.765,0,0,0,.332,6.742,3.735,3.735,0,0,0,.958,2.164,2.662,2.662,0,0,0,1.707.5,2.144,2.144,0,0,0,2.245-1.954A42.766,42.766,0,0,0,834.533,239.885Zm34.039-18.477L852.01,273.093H839.775l16.479-51.685Zm8.073,15.147q8.57,0,11.527,4.495t2.956,14.275q0,9.781-2.956,14.19t-11.486,4.412q-8.531,0-11.569-4.453t-3.036-14.148q0-9.7,2.995-14.234T876.645,236.555Zm2.829,19.31v-3.579a12.991,12.991,0,0,0-.291-3.579c-.194-.5-.415-1.027-.664-1.583a1.631,1.631,0,0,0-1.666-.831,2.847,2.847,0,0,0-1.871.5q-1.17.834-1.165,7.99v1.082a42.513,42.513,0,0,0,.332,6.742,3.75,3.75,0,0,0,.958,2.164,2.656,2.656,0,0,0,1.705.5,2.145,2.145,0,0,0,2.247-1.957A43.025,43.025,0,0,0,879.474,255.865Z" transform="translate(-817.138 -220.575)" fill="#fff"/>
        </g>
        <g id="Grupo_146456" data-name="Grupo 146456" transform="translate(42.287 10.588)">
          <path id="Trazado_216500" data-name="Trazado 216500" d="M840.47,211.753q0,7.368-7.533,7.367a20.558,20.558,0,0,1-6.6-1.027l.531-5.676a34.9,34.9,0,0,0,5.392,1.161,1.531,1.531,0,0,0,1.211-.365,1.764,1.764,0,0,0,.3-1.128q0-1.426-.962-1.426a.833.833,0,0,0-.764.531l-5.674-.664V198.348h13.108v5.274h-6.636v2.157a7.179,7.179,0,0,1,2.024-.265Q840.467,205.514,840.47,211.753Z" transform="translate(-826.333 -197.85)" fill="#fff"/>
          <path id="Trazado_216501" data-name="Trazado 216501" d="M849.206,204.237a31.508,31.508,0,0,1,0,9.128,9.11,9.11,0,0,1-1.228,3.251q-1.661,2.79-6.687,2.787t-6.721-2.787a9.357,9.357,0,0,1-1.246-3.251,24.959,24.959,0,0,1-.349-4.548,26.515,26.515,0,0,1,.332-4.562,9.451,9.451,0,0,1,1.228-3.3q1.727-2.821,6.737-2.819t6.7,2.819A9.458,9.458,0,0,1,849.206,204.237Zm-6.306,4.88v-.632q0-4.015-.7-4.545a1.425,1.425,0,0,0-.863-.265,1.959,1.959,0,0,0-.764.115.906.906,0,0,0-.431.466,5.781,5.781,0,0,0-.265.646,7.716,7.716,0,0,0-.2,2.123v2.093a25.184,25.184,0,0,0,.182,3.765,2.2,2.2,0,0,0,.531,1.294,1.511,1.511,0,0,0,.978.281,1.218,1.218,0,0,0,1.294-1.094A24.6,24.6,0,0,0,842.9,209.117Z" transform="translate(-817.647 -198.132)" fill="#fff"/>
        </g>
        <g id="Grupo_146457" data-name="Grupo 146457" transform="translate(41.473 148.651)">
          <path id="Trazado_216502" data-name="Trazado 216502" d="M841.21,261.4l-6.37,17.224h-7.667l6.107-14.834h-7.3v-5.609h15.23Z" transform="translate(-825.98 -257.689)" fill="#fff"/>
          <path id="Trazado_216503" data-name="Trazado 216503" d="M849.156,264.075a31.515,31.515,0,0,1,0,9.125,9.15,9.15,0,0,1-1.228,3.253q-1.661,2.786-6.689,2.787t-6.719-2.787a9.344,9.344,0,0,1-1.246-3.253,24.939,24.939,0,0,1-.349-4.545,26.318,26.318,0,0,1,.332-4.564,9.458,9.458,0,0,1,1.228-3.3q1.727-2.821,6.737-2.819t6.7,2.819A9.506,9.506,0,0,1,849.156,264.075Zm-6.306,4.878v-.63q0-4.015-.7-4.548a1.435,1.435,0,0,0-.863-.265,1.953,1.953,0,0,0-.764.118.879.879,0,0,0-.429.464,5.515,5.515,0,0,0-.268.646,7.637,7.637,0,0,0-.2,2.125v2.09a25.226,25.226,0,0,0,.182,3.768,2.215,2.215,0,0,0,.531,1.292,1.514,1.514,0,0,0,.981.284,1.217,1.217,0,0,0,1.292-1.1A24.556,24.556,0,0,0,842.849,268.953Z" transform="translate(-816.899 -257.97)" fill="#fff"/>
        </g>
      </g>
      <g id="Grupo_146466" data-name="Grupo 146466" transform="translate(952.72 226.687)">
        <g id="Grupo_146459" data-name="Grupo 146459">
          <rect id="Rectángulo_41886" data-name="Rectángulo 41886" width="116.125" height="184.379" fill="#fcd1b1"/>
          <rect id="Rectángulo_41887" data-name="Rectángulo 41887" width="116.125" height="39.189" fill="#feebde"/>
        </g>
        <g id="Grupo_146460" data-name="Grupo 146460" transform="translate(26.537 10.589)">
          <path id="Trazado_216504" data-name="Trazado 216504" d="M872.2,205.062a6.583,6.583,0,0,1,1.991-5.111,7.866,7.866,0,0,1,5.526-1.825,41.729,41.729,0,0,1,7.284.662l-.764,5.842a36.1,36.1,0,0,0-5.443-.831q-1.294,0-1.294.8a.436.436,0,0,0,.2.415c.132.078.231.138.3.182a2.049,2.049,0,0,0,.381.166c.189.067.344.127.466.182s.519.222,1.2.5,1.184.5,1.525.662a15.734,15.734,0,0,1,1.41.814,5.568,5.568,0,0,1,2.589,4.977,6.591,6.591,0,0,1-1.957,5.094,8,8,0,0,1-5.625,1.809,28.97,28.97,0,0,1-7.185-.9l.464-5.609a30.5,30.5,0,0,0,6.008,1.128q1.028,0,1.027-.729a.648.648,0,0,0-.247-.533,4.17,4.17,0,0,0-.732-.431c-.321-.155-.791-.358-1.41-.614s-1.14-.475-1.56-.662a9.716,9.716,0,0,1-1.493-.881A5.845,5.845,0,0,1,872.2,205.062Z" transform="translate(-872.2 -198.126)" fill="#fff"/>
          <path id="Trazado_216505" data-name="Trazado 216505" d="M897.687,218.878h-6.97l-.665-3.186H886.37l-.7,3.186H879l4.282-20.609H893.4Zm-8.131-7.466-1.262-6.9h-.132l-1.294,6.9Z" transform="translate(-863.307 -197.939)" fill="#fff"/>
          <path id="Trazado_216506" data-name="Trazado 216506" d="M900.055,218.878H887.676V198.269h7.1v15.267h5.74Z" transform="translate(-851.968 -197.939)" fill="#fff"/>
          <path id="Trazado_216507" data-name="Trazado 216507" d="M906.758,218.878H893.616V198.269h13.606l-.464,5.475h-6.04v2.49h5.277v4.778h-5.277v2.822h6.5Z" transform="translate(-844.203 -197.939)" fill="#fff"/>
        </g>
        <g id="Grupo_146461" data-name="Grupo 146461" transform="translate(17.864 111.522)">
          <rect id="Rectángulo_41888" data-name="Rectángulo 41888" width="8.607" height="10.329" transform="translate(11.935 2.639)" fill="#fff"/>
          <rect id="Rectángulo_41889" data-name="Rectángulo 41889" width="33.281" height="41.199" rx="3.131" transform="translate(0 12.968)" fill="#feebde"/>
          <rect id="Rectángulo_41890" data-name="Rectángulo 41890" width="19.28" height="2.639" rx="0.248" transform="translate(10.788)" fill="#f15767"/>
          <path id="Trazado_216508" data-name="Trazado 216508" d="M894.231,262.187a11.864,11.864,0,1,1-11.859-12.233A12.05,12.05,0,0,1,894.231,262.187Z" transform="translate(-865.731 -231.306)" fill="#fff"/>
        </g>
        <g id="Grupo_146465" data-name="Grupo 146465" transform="translate(57.616 126.557)">
          <g id="Grupo_146462" data-name="Grupo 146462">
            <rect id="Rectángulo_41891" data-name="Rectángulo 41891" width="47.634" height="13.245" fill="#feebde"/>
            <rect id="Rectángulo_41892" data-name="Rectángulo 41892" width="12.084" height="13.245" transform="translate(35.55)" fill="#fff2b8"/>
          </g>
          <g id="Grupo_146463" data-name="Grupo 146463" transform="translate(0 13.245)">
            <rect id="Rectángulo_41893" data-name="Rectángulo 41893" width="47.634" height="13.245" fill="#fff"/>
            <rect id="Rectángulo_41894" data-name="Rectángulo 41894" width="12.084" height="13.245" transform="translate(35.55)" fill="#fed935"/>
          </g>
          <g id="Grupo_146464" data-name="Grupo 146464" transform="translate(0 26.491)">
            <path id="Trazado_216511" data-name="Trazado 216511" d="M0,0H47.634V13.245H0Z" fill="#feebde"/>
            <path id="Trazado_216510" data-name="Trazado 216510" d="M0,0H12.084V13.245H0Z" transform="translate(35.55)" fill="#fff2b8"/>
          </g>
        </g>
      </g>
      <g id="Grupo_146467" data-name="Grupo 146467" transform="translate(855.734 200.585)">
        <path id="Trazado_216509" data-name="Trazado 216509" d="M819.082,207.733a.418.418,0,0,1-.418-.42V182.644a.419.419,0,1,1,.838,0v24.669A.419.419,0,0,1,819.082,207.733Z" transform="translate(-818.664 -182.224)" fill="#636363"/>
      </g>
      <g id="Grupo_146469" data-name="Grupo 146469" transform="translate(1033.734 200.585)">
        <path id="Trazado_216509-2" data-name="Trazado 216509" d="M819.082,207.733a.418.418,0,0,1-.418-.42V182.644a.419.419,0,1,1,.838,0v24.669A.419.419,0,0,1,819.082,207.733Z" transform="translate(-818.664 -182.224)" fill="#636363"/>
      </g>
    </g>
    <g id="Grupo_146512" data-name="Grupo 146512" transform="translate(242.136 1296.453)">
      <path id="Trazado_216512" data-name="Trazado 216512" d="M892.2,339.121c-2.778-.82-5.732-1.559-8.881-2.183-.161-.032-.3-.066-.449-.081a134.992,134.992,0,0,0-14.89-2.042c-.13-.014-.259-.032-.4-.046l-1.944-.147-25.572-.127c-3.725.417-9.316.932-14.985,1.59l-.451.046a144.066,144.066,0,0,0-14.277,2.186c-1.254.273-2.522.6-3.808.981-.129.032-.273.081-.4.127a34.7,34.7,0,0,0-3.532,1.268c-8.209-8.994-3.791-20.268-2.3-23.064a7.6,7.6,0,0,1,1.254-1.639c2.249-2.361,5.942-4.691,5.781-8.608-.207-4.82-4.818-4.4-5.427-16.207a22.83,22.83,0,0,1,.046-2.988v-.017c.034-.5.08-1,.147-1.461v-.014a25.762,25.762,0,0,1,7.645-14.651c1.4-16.253,14.038-30.1,19.661-32.124a11.449,11.449,0,0,1,6.874-.129,2.88,2.88,0,0,1,.4.129,11.128,11.128,0,0,1,3.886,2.039l.385.337a4.028,4.028,0,0,1,1.107,1.639,7.858,7.858,0,0,1,1-.964c.112-.081.239-.175.368-.273a10.193,10.193,0,0,1,3.325-1.622c.193-.063.4-.112.61-.161,3.15-.708,7.68-.242,13.573,4.032,12.451,9.043,15.261,24.9,16.273,29.506,1,4.628,9.831,14.07,13.236,19.886a10.768,10.768,0,0,1,1.156,2.7v.017c1.317,4.705-1.254,8.867-3.952,11.74-3.213,3.405,3.6,8.033,5.815,16.273C894.819,330.141,893.453,335.635,892.2,339.121Z" transform="translate(37.357 0)" fill="#f25a68"/>
      <path id="Trazado_216513" data-name="Trazado 216513" d="M892.2,301.463a125.145,125.145,0,0,0-26.567-4.5l-25.572-.127c-7.228.8-21.473,1.976-29.714,3.822a44.479,44.479,0,0,0-7.742,2.376c-8.209-8.994-3.791-20.268-2.3-23.064a7.6,7.6,0,0,1,1.254-1.639c15.709,7.918,24.318,20.127,35.08,10.745,12.192-10.616,7.035-27.047,25.779-23.561,12.3,2.3,23.228-.739,29.187-6.12,1.317,4.705-1.254,8.867-3.952,11.74-3.213,3.405,3.6,8.033,5.815,16.273C894.819,292.484,893.453,297.978,892.2,301.463Z" transform="translate(37.357 37.657)" fill="#e63d4e"/>
      <g id="Grupo_146475" data-name="Grupo 146475" transform="translate(839.318 239.79)">
        <g id="Grupo_146470" data-name="Grupo 146470" transform="translate(0.671 2.169)">
          <path id="Trazado_216514" data-name="Trazado 216514" d="M837.794,240.578c-.13,1.9-.175,3.566-.224,5.03-.273,8.335-.371,11.145-10.087,15.468-20.754,9.267-24.159,17.346-24.818,23.337-.578,5.381,2.473,9.155,5.413,12.787,2.957,3.661,5.735,7.1,4.516,11.8-1.271,4.9-4.628,7.711-7.581,10.184-2.652,2.218-4.947,4.127-5.125,7.035-.256,3.84,1.846,8.418,3.486,11.358-.13.032-.273.081-.4.127-1.654-2.971-3.742-7.564-3.483-11.5.193-3.086,2.537-5.062,5.266-7.325,2.908-2.442,6.2-5.2,7.455-9.992,1.171-4.5-1.559-7.869-4.435-11.435-3-3.7-6.1-7.533-5.494-13.092,1.254-11.611,14.038-18.744,25.043-23.642,9.477-4.242,9.572-6.989,9.845-15.114.049-1.544.112-3.328.242-5.367Z" transform="translate(-799.465 -240.241)" fill="#ff929f"/>
        </g>
        <g id="Grupo_146471" data-name="Grupo 146471" transform="translate(44.799 1.125)">
          <path id="Trazado_216515" data-name="Trazado 216515" d="M851.366,335.9c-.161-.032-.3-.066-.449-.081,4.9-6.233,5.381-8.128,2.376-16.207-2.617-7.052-1.783-9.862-.4-14.522.48-1.6,1.009-3.42,1.51-5.718,1.815-8.37-1.464-12.094-7.423-18.89-.4-.466-.834-.946-1.268-1.461-6.762-7.743-8.72-10.248-13.394-21.925-3.808-9.526-13.3-15.114-17.51-17.058.193-.063.4-.112.61-.161,4.484,2.154,13.541,7.774,17.269,17.076,4.659,11.614,6.6,14.1,13.316,21.813.449.5.866,1,1.286,1.461,5.845,6.65,9.362,10.665,7.516,19.227-.5,2.312-1.044,4.144-1.524,5.749-1.4,4.74-2.169,7.34.4,14.263C856.715,327.675,856.137,329.795,851.366,335.9Z" transform="translate(-814.807 -239.878)" fill="#ff929f"/>
        </g>
        <g id="Grupo_146472" data-name="Grupo 146472">
          <path id="Trazado_216516" data-name="Trazado 216516" d="M833.961,239.616a31.969,31.969,0,0,1-8.787,8.818,29.817,29.817,0,0,0-8.418,8.5,71.861,71.861,0,0,0-7.035,12.707c-1.622,3.581-2.908,6.408-5.574,9.267a27.333,27.333,0,0,0-4.915,8.962c.034-.5.08-1,.147-1.461v-.014a25.536,25.536,0,0,1,4.481-7.743c2.617-2.827,3.886-5.623,5.493-9.189a73.9,73.9,0,0,1,7.067-12.753,30.422,30.422,0,0,1,8.531-8.594,31.489,31.489,0,0,0,8.608-8.626A2.88,2.88,0,0,1,833.961,239.616Z" transform="translate(-799.231 -239.487)" fill="#ff929f"/>
        </g>
        <g id="Grupo_146473" data-name="Grupo 146473" transform="translate(41.106 2.908)">
          <path id="Trazado_216517" data-name="Trazado 216517" d="M845.037,305.985a77.17,77.17,0,0,0-5.013,11.645,32.356,32.356,0,0,0-1.588,14.985c-.13-.014-.259-.032-.4-.046a32.744,32.744,0,0,1,1.605-15.068,78.771,78.771,0,0,1,5.045-11.709c2.8-5.542,4.817-9.557,3.117-15.741a91.961,91.961,0,0,0-3.647-10.826,36.03,36.03,0,0,1-2.105-6.408c-.771-3.633-3.966-5.335-9.252-8.177-1.861-1-3.983-2.12-6.31-3.518-9.238-5.511-11.887-13.573-12.963-20.352.112-.081.239-.175.368-.273,1.976,12.353,7.837,17.332,12.787,20.288,2.344,1.38,4.449,2.505,6.3,3.5,5.4,2.891,8.657,4.625,9.46,8.45a37.217,37.217,0,0,0,2.088,6.345,92.149,92.149,0,0,1,3.664,10.857C849.921,296.284,847.879,300.348,845.037,305.985Z" transform="translate(-813.523 -240.498)" fill="#ff929f"/>
        </g>
        <g id="Grupo_146474" data-name="Grupo 146474" transform="translate(17.824 59.799)">
          <path id="Trazado_216518" data-name="Trazado 216518" d="M810.72,296.776l-.451.046a15.169,15.169,0,0,1-2.842-11.1c.3-2.263.673-4.159.981-5.813,1.188-6.233,1.847-9.67-2.957-19.339a.2.2,0,0,1,.081-.273.208.208,0,0,1,.273.095c4.866,9.782,4.208,13.268,3,19.581-.319,1.671-.673,3.549-.978,5.8A14.882,14.882,0,0,0,810.72,296.776Z" transform="translate(-805.428 -260.278)" fill="#ff929f"/>
        </g>
      </g>
      <path id="Trazado_216519" data-name="Trazado 216519" d="M969.57,328.1c-2.6-15.131-6.618-29.184-16.449-38.422-5.686-5.332-13.4-9.621-23.564-12.641a115.117,115.117,0,0,0-19.241-3.805c-2.344-.29-4.786-.515-7.325-.693l-25.572-.127c-.915.095-1.927.207-3.034.319-7.679.788-19.468,1.881-26.679,3.5a44.477,44.477,0,0,0-7.742,2.376c-5.816,2.442-11.5,6.684-15.951,14.875-6.425,11.853-37.554,65.262-41.569,72.49s-6.008,12.045-3.405,19.676,19.083,21.266,30.631,26.5l23.579-16.866s-8.433-9.831-16.656-15.871l-1.412-1.012-.017-.014-.788-.578,5.013-2.8,4.127,3.115L847.3,396.095s-1.125,3.822-2.715,9.074c1.044,1.061,1.72,1.752,1.72,1.752,9.589-.112,16.029,2.908,19.756,5.462-1.784-.515-3.84-1.125-6.521-1.639-7.423-1.395-15.051,6.233-13.653,6.635s12.655,0,12.655,0-.61,2.008-6.618,4.418c-6.037,2.407-14.456,5.01-13.909,7.627.483,2.315,9.4.693,11.47.308-1.689.463-8.114,2.246-10.538,4.19a33.165,33.165,0,0,1-2.971-2.361,27.927,27.927,0,0,1-1.72,3.871c-2.827,4.435-4.625,7.1-4.625,7.1s.978.432,2.617,1.076c4.9,1.941,15.612,5.893,23.274,6.489a161.789,161.789,0,0,0,28.27-1.027c.13-.017.259-.035.4-.049a92.526,92.526,0,0,0,11.9-2.137c9.045-2.376,22.762-6.811,26.633-8.079.69-.224,1.058-.336,1.058-.336l2.218-11.5s23.1-8.065,30.921-11.74,11.243-9.3,12.641-14.312a74.67,74.67,0,0,0,.915-10.443C971.336,373.077,971.56,339.651,969.57,328.1Zm-30.309,57.359a59.625,59.625,0,0,0-7.021,2.8l7.021-24.9Z" transform="translate(0 62.081)" fill="#1c117b"/>
      <path id="Trazado_216520" data-name="Trazado 216520" d="M847.5,291.124c3.814,7.628,4.415,24.093,0,30.116S829.023,336.9,829.023,336.9s12.448-16.463,15.459-24.4S847.5,291.124,847.5,291.124Z" transform="translate(95.98 97.181)" fill="#110c6d"/>
      <path id="Trazado_216521" data-name="Trazado 216521" d="M847.355,273.235c-.129,18.632-18.747,35.7-18.747,35.7-7.081-5.332-15.114-20.608-17.185-36.2,1.107-.112,2.12-.224,3.035-.319l25.572.127C842.569,272.72,845.011,272.944,847.355,273.235Z" transform="translate(62.961 62.081)" fill="#110c6d"/>
      <path id="Trazado_216522" data-name="Trazado 216522" d="M804.873,318.877l-2.105.512-4.127-3.115-5.013,2.8.788.578-5.493-.771s2.025-4.015,6.842-15.149Z" transform="translate(20.745 120.828)" fill="#110c6d"/>
      <g id="Grupo_146476" data-name="Grupo 146476" transform="translate(928.015 376.056)">
        <path id="Trazado_216523" data-name="Trazado 216523" d="M830.272,342.081a.2.2,0,0,1-.184-.121.2.2,0,0,1,.1-.265c7.547-3.313,16.9-10.414,18.442-19.526,1.47-8.677-3.3-20.073-3.354-20.188a.133.133,0,0,1-.014-.057c-.006-.052-.538-5.318-.739-14.855a.2.2,0,0,1,.2-.2h0a.2.2,0,0,1,.2.2c.19,9.149.69,14.358.73,14.792.27.647,4.82,11.8,3.371,20.38-1.567,9.27-11.041,16.475-18.678,19.828A.2.2,0,0,1,830.272,342.081Z" transform="translate(-830.07 -286.865)" fill="#080439"/>
      </g>
      <g id="Grupo_146477" data-name="Grupo 146477" transform="translate(883.794 364.814)">
        <path id="Trazado_216524" data-name="Trazado 216524" d="M822.84,283.091a.219.219,0,0,0-.256-.126.2.2,0,0,0-.129.256c2.105,6.716,2.344,42.34,2.137,57.552-.112,7.63-3.342,33.907-6.184,57.1-1.913,15.58-3.132,25.684-3.713,31.419.13-.017.259-.035.4-.049.708-6.842,2.186-18.842,3.71-31.321,2.845-23.2,6.072-49.507,6.169-57.134C825.2,325.546,824.96,289.856,822.84,283.091Z" transform="translate(-814.695 -282.956)" fill="#080439"/>
      </g>
      <g id="Grupo_146478" data-name="Grupo 146478" transform="translate(811.362 437.696)">
        <path id="Trazado_216525" data-name="Trazado 216525" d="M811.4,328.175a.194.194,0,0,1-.144-.063c-.141-.144-14.323-14.694-21.649-19.446a.2.2,0,0,1,.219-.336c7.363,4.774,21.577,19.356,21.721,19.5a.2.2,0,0,1-.147.342Z" transform="translate(-789.511 -308.297)" fill="#080439"/>
      </g>
      <path id="Trazado_216526" data-name="Trazado 216526" d="M878.579,342.379c-.434-7.889-2.876-16.322-5.7-23.757v-.017a168.913,168.913,0,0,0-6.891-15.58c-4.274-8.577-8.674-15.531-8.674-15.531a39.743,39.743,0,0,1-10.23,12.986l0,.006c.034-.02,0,.009,0,.009v-.009l-.06.04a33.117,33.117,0,0,1-2.718,2.019,30.826,30.826,0,0,1-4.021,2.246c-8.611,3.995-17.507,7.636-24.812,8.994a26.353,26.353,0,0,1-7.311.483c-8.033-.8-21.14-.273-21.14-.273,2.939,6.955,17.524,41.345,17.524,41.345L816.063,367l-7.211,20.432,3.2,23.74s28.784-.883,49.907-8a57.113,57.113,0,0,0,12.865-5.928s2.6-23.049,3.535-40.559C878.642,351,878.772,345.911,878.579,342.379Z" transform="translate(17.183 90.371)" fill="#f5faff"/>
      <path id="Trazado_216527" data-name="Trazado 216527" d="M980.335,625.672l-6.426,1.337S920.635,512.962,916.62,505.2c-3.6-6.937-46.4-98.125-56.154-118.572-1.142-2.41-1.832-3.84-1.944-4.032-.354-.627-1.188-.385-2.152.224a26.35,26.35,0,0,0-4.274,3.791s-3.468,23.291-4.544,39.354,2.939,88.07,2.939,88.07,12.319,25.169,12.848,39.625c.547,14.456-8.286,73.888-9.365,74.946-.673.676-3.1,1.125-4.849,1.383-1.061.144-1.846.224-1.846.224s-22.215-94.5-25.911-108.422c-3.71-13.909-20.671-84.055-26.55-115.986-2.41-13.092-1.944-26.6-.336-38.293.046-.273.08-.546.112-.82a136.108,136.108,0,0,1,5.718-24.3v-.014a31.263,31.263,0,0,1,3.276-7.308c2.8,1.107,7.487,2.873,12.416,4.3.144.034.273.066.417.115a56.265,56.265,0,0,0,10.44,2.071,142.962,142.962,0,0,0,19.1-.175,3.117,3.117,0,0,0,.4-.034c2.312-.158,4.628-.354,6.891-.592l.386-.049a99.756,99.756,0,0,0,13.8-2.361c3.552-.932,7.809-2.169,11.9-3.423.126-.031.273-.078.4-.112,6.218-1.91,12.016-3.791,14.329-4.544,1.139,1.766,2.505,4.176,4,7.052,2.8,5.332,6.106,12.27,9.445,19.725.1.193.178.385.259.578v.014c5.991,13.38,12.014,28.287,15.275,38.342,6.425,19.805,17.395,88.617,17.395,88.617s18.215,18.471,25.972,39.081S980.335,625.672,980.335,625.672Z" transform="translate(28.664 170.619)" fill="#595fd9"/>
      <path id="Trazado_216528" data-name="Trazado 216528" d="M834.427,519.526c.547,14.456-8.286,73.888-9.365,74.946-.673.676-3.1,1.125-4.849,1.383,1.076-12.321,4.032-50.5,1.349-75.8-3.23-30.519-10.153-42.294-10.153-42.294s-6.425-38.549,0-86.206,11.775-39.081,15.79-43.1c0,0,.081.081.259.224a26.347,26.347,0,0,0-4.274,3.791s-3.469,23.291-4.544,39.354,2.939,88.07,2.939,88.07S833.9,505.07,834.427,519.526Z" transform="translate(57.576 204.755)" fill="#444ec6"/>
      <path id="Trazado_216529" data-name="Trazado 216529" d="M931.869,589.852l-1.875.391S876.719,476.2,872.7,468.436c-3.6-6.937-46.4-98.125-56.154-118.572,6.423,6.04,18.068,17.458,21.186,23.628,4.386,8.657,62.548,138.04,73.244,161.072C916.151,545.7,924.946,571.252,931.869,589.852Z" transform="translate(72.579 207.386)" fill="#444ec6"/>
      <path id="Trazado_216530" data-name="Trazado 216530" d="M893.389,337.319l-23.161,8.047s-23.337,8.047-34.583,9.123c-10.1.946-30.133-4.562-40.01-12.1v-.014a31.259,31.259,0,0,1,3.276-7.308c4.9,1.941,15.612,5.893,23.274,6.489,10.248.8,29.926-.385,40.574-3.213,9.045-2.376,22.762-6.811,26.633-8.079C890.531,332.033,891.9,334.443,893.389,337.319Z" transform="translate(33.34 170.619)" fill="#444ec6"/>
      <path id="Trazado_216531" data-name="Trazado 216531" d="M875.766,313.462a74.646,74.646,0,0,1-.915,10.443c-1.4,5.01-4.82,10.633-12.641,14.312s-30.921,11.74-30.921,11.74l-2.94-6.089c12.3-4.176,24.094-9.557,32.656-15.709C866.482,324.242,872.28,317.687,875.766,313.462Z" transform="translate(94.718 139.091)" fill="#110c6d"/>
      <path id="Trazado_216532" data-name="Trazado 216532" d="M838.565,304.038l-7.029,24.9a60.352,60.352,0,0,1,7.029-2.813Z" transform="translate(100.695 121.41)" fill="none"/>
      <path id="Trazado_216533" data-name="Trazado 216533" d="M838.565,326.124V304.038l-7.029,24.9A60.352,60.352,0,0,1,838.565,326.124Z" transform="translate(100.695 121.41)" fill="none"/>
      <path id="Trazado_216534" data-name="Trazado 216534" d="M832.691,268.9a25.018,25.018,0,0,1-19.658,4.541c1.985,3.972,3.328,8.651,1.855,9.511-1.6.938-2.41.4-2.41.4s2.488,11.778,6.264,19.543,8.059,10.975,8.059,10.975a52.091,52.091,0,0,0,7.763-13.653c3.213-8.3,5.088-16.2,3.48-16.733s-4.415-1.473-4.283-2.543c.083-.673.751-8.579,1.231-14.369A13.45,13.45,0,0,1,832.691,268.9Z" transform="translate(64.94 51.135)" fill="#ff8c87"/>
      <path id="Trazado_216535" data-name="Trazado 216535" d="M868.373,272.728c-2.543.4-5.088,2.81-5.088,2.81s-5.887-6.023-5.487-12.448c0,0-8.968-3.213-13.921-7.763a103.058,103.058,0,0,1-9.905-10.975s-4.55,8.833-10.173,12.448-13.653,4.953-13.653,4.953c-.8,3.748,0,16.2,0,16.2s-3.88-5.088-6.158-3.348-1.47,11.246,2.545,15.931,7.092,3.748,7.092,3.748,3.48,14.188,12.18,18.873a20.6,20.6,0,0,0,5.508,2,25.017,25.017,0,0,0,19.658-4.541,13.449,13.449,0,0,0,2.3-2.324c4.65-5.839,7.069-16.282,7.069-16.282a15.794,15.794,0,0,0,9.368-7.766C872.791,278.081,870.916,272.325,868.373,272.728Z" transform="translate(46.659 9.431)" fill="#ffafac"/>
      <path id="Trazado_216536" data-name="Trazado 216536" d="M810.943,265.42l18.571-2.01s-2.007,7.53-8.835,8.936S810.943,265.42,810.943,265.42Z" transform="translate(62.06 45.184)" fill="#fff"/>
      <path id="Trazado_216537" data-name="Trazado 216537" d="M830.127,435.607c-4.55,1.872-27.841,16.063-27.841,16.063h36.677L836.82,434Z" transform="translate(45.818 365.235)" fill="#1b1753"/>
      <path id="Trazado_216538" data-name="Trazado 216538" d="M855.993,434.314l4.284,19.275h37.211l-35.07-20.613Z" transform="translate(146.579 363.314)" fill="#1b1753"/>
      <path id="Trazado_216539" data-name="Trazado 216539" d="M820.769,338.252c1.6-5.263,2.718-9.083,2.718-9.083L795.58,308.087l-5.022,2.813,2.209,1.6c8.232,6.023,16.664,15.862,16.664,15.862C811.951,329.552,817.841,335.307,820.769,338.252Z" transform="translate(23.815 129.006)" fill="none"/>
      <path id="Trazado_216540" data-name="Trazado 216540" d="M838.565,326.124V304.038l-7.029,24.9A60.352,60.352,0,0,1,838.565,326.124Z" transform="translate(100.695 121.41)" fill="none"/>
      <path id="Trazado_216541" data-name="Trazado 216541" d="M804.931,331c1.461-.472,2.433-.851,2.433-.851C806.438,330.455,805.641,330.737,804.931,331Z" transform="translate(50.781 170.394)" fill="#ffafac"/>
      <path id="Trazado_216542" data-name="Trazado 216542" d="M864.387,336.383c-6.328.693-16.834,1.849-28.721,3.279-19.29,2.344-41.2-10.633-41.2-10.633a107.417,107.417,0,0,0,23.771-2.6c11.39-2.635,22.23-7.389,40.672-28.109,2.824,7.435,5.266,15.868,5.7,23.757C864.8,325.606,864.674,330.7,864.387,336.383Z" transform="translate(31.151 110.676)" fill="#e6e6e8"/>
      <path id="Trazado_216543" data-name="Trazado 216543" d="M847.715,337.983c-21.122,7.116-49.907,8-49.907,8l-3.2-23.74C811.574,332.087,834.272,336.28,847.715,337.983Z" transform="translate(31.422 155.563)" fill="#e6e6e8"/>
      <path id="Trazado_216544" data-name="Trazado 216544" d="M838.8,330.6c2.677.506,4.725,1.113,6.508,1.622-3.716-2.545-10.156-5.571-19.759-5.447,0,0-.673-.7-1.714-1.749-2.928-2.945-8.818-8.7-11.338-9.885L788.923,332c6.023,3.213,15.344,7.958,15.344,7.958a110.027,110.027,0,0,0,10.955,11.45c1.006.871,2.007,1.683,2.977,2.364,2.793-2.258,10.967-4.306,10.967-4.306s-11.358,2.41-11.9-.2,7.886-5.22,13.912-7.627,6.624-4.418,6.624-4.418-11.243.4-12.649,0S831.372,329.194,838.8,330.6Z" transform="translate(20.747 142.235)" fill="#ff9f9c"/>
      <path id="Trazado_216545" data-name="Trazado 216545" d="M882.977,328.129a63.238,63.238,0,0,0-7.648-12.517s-5.4,2.249-13.636,5.462-20.481,9.638-25.9,10.932c-3.469.825-5.79.23-8.953-.676-1.783-.509-3.831-1.116-6.508-1.622-7.429-1.4-15.057,6.224-13.653,6.627s12.649,0,12.649,0-.6,2.008-6.624,4.418-14.458,5.019-13.912,7.627,11.9.2,11.9.2-8.174,2.048-10.967,4.306c-.7.569-1.084,1.15-.88,1.72,1,2.81,11.243.4,11.243.4-1.6.4-10.843,2.008-6.626,4.418,2.988,1.706,9.482-.009,13.029-1.156.71-.262,1.507-.544,2.433-.851,0,0-.972.38-2.433.851-5.758,2.125-4.668,2.807-.38,3.164,4.82.4,10.642-1.406,16.866-4.418s8.033-5.019,18.3-5.485,26.478-1.2,35.512-5.611C886.791,345.918,885.989,334.928,882.977,328.129Z" transform="translate(39.216 143.124)" fill="#ffafac"/>
      <g id="Grupo_146479" data-name="Grupo 146479" transform="translate(905.909 423.259)">
        <path id="Trazado_216546" data-name="Trazado 216546" d="M822.585,342.548a.2.2,0,0,1-.075-.385c9.762-3.955,31.244-13.912,33.024-14.737V303.478a.2.2,0,1,1,.4,0v24.073a.2.2,0,0,1-.115.184c-.23.106-23.012,10.691-33.159,14.8A.174.174,0,0,1,822.585,342.548Z" transform="translate(-822.384 -303.277)" fill="#080439"/>
      </g>
      <g id="Grupo_146480" data-name="Grupo 146480" transform="translate(840.074 417.772)">
        <path id="Trazado_216547" data-name="Trazado 216547" d="M799.7,321.694a.2.2,0,0,1-.2-.178.2.2,0,0,1,.181-.221,108.8,108.8,0,0,0,17.829-3.451c8.37-2.609,15.612-9.759,21.594-16.408a.2.2,0,0,1,.285-.014.2.2,0,0,1,.014.282c-6.02,6.69-13.311,13.886-21.775,16.523a109.058,109.058,0,0,1-17.907,3.469Z" transform="translate(-799.494 -301.369)" fill="#080439"/>
      </g>
      <g id="Grupo_146481" data-name="Grupo 146481" transform="translate(804.006 404.166)">
        <path id="Trazado_216548" data-name="Trazado 216548" d="M804.678,338.384a.2.2,0,0,1-.184-.121L786.97,296.919a.2.2,0,0,1,.106-.265.206.206,0,0,1,.265.106l17.524,41.344a.2.2,0,0,1-.109.265A.178.178,0,0,1,804.678,338.384Z" transform="translate(-786.954 -296.639)" fill="#080439"/>
      </g>
      <g id="Grupo_146482" data-name="Grupo 146482" transform="translate(823.145 509.992)">
        <path id="Trazado_216549" data-name="Trazado 216549" d="M815.547,333.548c-2.649,3.451-5.862,7.484-9.218,11.709-4.6,5.767-9.27,11.645-12.721,16.319.046-.273.08-.546.112-.82,3.42-4.593,7.9-10.23,12.3-15.758,3.308-4.159,6.471-8.142,9.106-11.565C815.274,333.468,815.4,333.5,815.547,333.548Z" transform="translate(-793.608 -333.433)" fill="#080439"/>
      </g>
      <g id="Grupo_146483" data-name="Grupo 146483" transform="translate(908.003 505.43)">
        <path id="Trazado_216550" data-name="Trazado 216550" d="M851.543,354.658c-8.625-4.467-22.023-12.609-28.431-22.7.127-.032.273-.078.4-.112,6.264,9.8,19.2,17.749,27.772,22.233C851.382,354.272,851.462,354.465,851.543,354.658Z" transform="translate(-823.112 -331.847)" fill="#080439"/>
      </g>
      <g id="Grupo_146484" data-name="Grupo 146484" transform="translate(855.51 678.433)">
        <path id="Trazado_216551" data-name="Trazado 216551" d="M805.063,400.431a.205.205,0,0,1-.17-.095.2.2,0,0,1,.06-.276c5.459-3.495,4.941-7.791,4.932-7.835a.205.205,0,0,1,.173-.227.218.218,0,0,1,.227.173c.026.184.572,4.585-5.117,8.229A.2.2,0,0,1,805.063,400.431Z" transform="translate(-804.861 -391.998)" fill="#080439"/>
      </g>
      <g id="Grupo_146485" data-name="Grupo 146485" transform="translate(953.515 660.365)">
        <path id="Trazado_216552" data-name="Trazado 216552" d="M839.678,393.191a3.547,3.547,0,0,1-.575-.037.2.2,0,0,1-.164-.233.205.205,0,0,1,.233-.161c.224.032,5.479.848,7.8-6.906a.209.209,0,0,1,.25-.132.2.2,0,0,1,.135.25C845.384,392.556,841.208,393.191,839.678,393.191Z" transform="translate(-838.936 -385.716)" fill="#080439"/>
      </g>
      <g id="Grupo_146486" data-name="Grupo 146486" transform="translate(874.625 511.326)">
        <path id="Trazado_216553" data-name="Trazado 216553" d="M821.867,357.027a.209.209,0,0,1-.13.193l-2.778,1.205c-.032.014-.049.032-.081.032s-.049-.017-.081-.032a.2.2,0,0,1-.112-.112c-.049-.144-5.157-14.729-7.179-23.74a3.126,3.126,0,0,0,.4-.034c1.9,8.4,6.474,21.654,7.084,23.435l2.459-1.059L818.8,333.946l.385-.049Z" transform="translate(-811.507 -333.897)" fill="#080439"/>
      </g>
      <path id="Trazado_216554" data-name="Trazado 216554" d="M826.447,321.065s-2.056,1.139-6.313,1.009c-1.654-.046-5.266-.014-9.091.034-.739.014-1.475.014-2.215.032-5.269.063-10.233.161-10.233.161-3.213-2.266-10.44-11.9-13.926-22.086-3.469-10.167-2.666-16.866.676-16.866s12.721,9.635,19.066,15.934S826.447,321.065,826.447,321.065Z" transform="translate(8.551 82.596)" fill="#fdcd45"/>
      <path id="Trazado_216555" data-name="Trazado 216555" d="M809.658,292.025c-.187.129-.8.572-2.718,2.019A33.1,33.1,0,0,0,809.658,292.025Z" transform="translate(54.55 98.872)" fill="none"/>
      <path id="Trazado_216556" data-name="Trazado 216556" d="M835.649,318.023a.2.2,0,0,1-.063.049c-.175.127-.788.578-2.715,2.022-.48.322-.978.627-1.492.932-.6.354-1.22.69-1.864,1-.207.112-.434.224-.659.319-1.219.564-2.442,1.125-3.661,1.657-.627.3-1.268.578-1.913.848-.592.259-1.188.515-1.783.756q-.578.263-1.156.483c-.242.112-.5.207-.739.3-.817.337-1.622.659-2.425.946-.834.354-1.654.659-2.474.949-.6.207-1.188.417-1.766.624-.659.227-1.317.434-1.962.627-.385.144-.785.259-1.171.371-.273.08-.564.175-.837.239q-1.083.315-2.12.581c-.946.224-1.9.431-2.81.61-.627-1.142-4.13-7.147-6.1-11.438-2.186-4.769-4.418-16.866-4.82-25.425a151.207,151.207,0,0,0,15.934-5.623A98.173,98.173,0,0,0,828.2,278.139s1.864,6.425,3.244,14.056C832.789,299.745,835.6,317.669,835.649,318.023Z" transform="translate(28.614 72.82)" fill="#ff9100"/>
      <path id="Trazado_216557" data-name="Trazado 216557" d="M807.906,292.016v.009S807.941,292,807.906,292.016Z" transform="translate(56.362 98.841)" fill="#ff9100"/>
      <path id="Trazado_216558" data-name="Trazado 216558" d="M807.946,292.015l0-.006-.058.046Z" transform="translate(56.323 98.842)" fill="#ff9100"/>
      <path id="Trazado_216559" data-name="Trazado 216559" d="M810.462,313.246c-.328-1.257-5.87-10.092-3.187-19.848s5.629-10.021,6.3-9.486,1.205,12.18,1.205,12.18,1.74-15.528,4.418-15.393,0,13.785,0,13.785,4.283-10.573,6.825-9.235-3.67,12.6-6.066,16.443-3.612,5.787-5.508,7.743S810.462,313.246,810.462,313.246Z" transform="translate(53.806 77.622)" fill="#519f91"/>
      <path id="Trazado_216560" data-name="Trazado 216560" d="M786.49,298.743c2.566.489,3.011-11.646.9-12.045S784.382,298.343,786.49,298.743Z" transform="translate(13.931 88.858)" fill="#ff9100"/>
      <path id="Trazado_216561" data-name="Trazado 216561" d="M789.008,304.185c2.5.771,3.034-13.452,1.116-13.653S787.7,303.785,789.008,304.185Z" transform="translate(19.544 96.066)" fill="#ff9100"/>
      <path id="Trazado_216562" data-name="Trazado 216562" d="M793.834,301.443c-.739.014-1.475.014-2.215.032-.242-2.715,1.332-7.34,2.425-7.1C794.976,294.584,794.51,298.63,793.834,301.443Z" transform="translate(25.759 103.262)" fill="#ff9100"/>
      <g id="Grupo_146487" data-name="Grupo 146487" transform="translate(824.943 356.855)">
        <path id="Trazado_216563" data-name="Trazado 216563" d="M806.874,318.276q-1.083.315-2.12.581a52.057,52.057,0,0,1-6.906-12.707c-2.666-7.886-2.666-11.243-3.615-21.683h2.008s2.41,17.539,3.888,21.732C801.142,309.072,804.723,314.888,806.874,318.276Z" transform="translate(-794.233 -272.163)" fill="#fdcd45"/>
        <path id="Trazado_216564" data-name="Trazado 216564" d="M807.637,318.355c-.817.337-1.622.659-2.425.946a53.718,53.718,0,0,1-2.8-11.18c-.963-7.372-2.249-16.463-2.922-24.174l1.878-1.524s.932,18.873,2.54,24.332C805.019,310.546,806.722,315.608,807.637,318.355Z" transform="translate(-784.363 -275.998)" fill="#fdcd45"/>
        <path id="Trazado_216565" data-name="Trazado 216565" d="M806.05,318.511c-.6.207-1.188.417-1.766.624a28.915,28.915,0,0,1-4.162-9.828c-1.6-7.343-2.393-25.155-2.393-25.155l1.864-.8A111.379,111.379,0,0,0,802,305.016,136.759,136.759,0,0,0,806.05,318.511Z" transform="translate(-787.674 -274.259)" fill="#fdcd45"/>
        <path id="Trazado_216566" data-name="Trazado 216566" d="M805.639,318.359c-.385.144-.785.259-1.171.371a68.376,68.376,0,0,1-4.242-9.816c-1.6-5.14-3.871-19.9-4.145-21.893a7.867,7.867,0,0,1,0-2.922h2.074c-.337,6.954,1.156,15.517,2.891,21.942A87.973,87.973,0,0,0,805.639,318.359Z" transform="translate(-790.99 -272.855)" fill="#fdcd45"/>
        <path id="Trazado_216567" data-name="Trazado 216567" d="M811.637,317.179c-.6.354-1.219.69-1.864,1a64.812,64.812,0,0,1-1.717-6.537c-1.205-5.623-3.616-19.805-3.486-21.283a72.359,72.359,0,0,0-.932-8.033l2.537-2.134a135.405,135.405,0,0,0,2.007,21.683C809.212,307.222,810.915,314.225,811.637,317.179Z" transform="translate(-776.588 -280.189)" fill="#fdcd45"/>
        <path id="Trazado_216568" data-name="Trazado 216568" d="M809.036,317.45c-.627.3-1.268.578-1.913.848a53.734,53.734,0,0,0-1.864-10.055c-1.8-6.135-3.532-25.137-3.532-25.137l2.89-1.476c-.354,7.9.049,15.787,1.4,21.747C807.029,307.875,808.409,314.475,809.036,317.45Z" transform="translate(-780.171 -277.486)" fill="#fdcd45"/>
        <path id="Trazado_216569" data-name="Trazado 216569" d="M807,318.448q-.578.263-1.156.483c-.771-2.6-2.456-8.355-3.259-12.5-1.079-5.493-1.737-17.783-1.737-23.13l1.864-1.352s.8,17.944,1.479,23.484A106.221,106.221,0,0,0,807,318.448Z" transform="translate(-781.828 -276.88)" fill="#fdcd45"/>
      </g>
      <path id="Trazado_216570" data-name="Trazado 216570" d="M852.83,358.789c0,.342-1.5,83.937-1.5,83.937h40.321V358.789Z" transform="translate(137.824 224.13)" fill="#fdcd45"/>
      <path id="Trazado_216571" data-name="Trazado 216571" d="M865.345,361.832h16.123l-4.428,75.185h-11.7Z" transform="translate(164.125 229.839)" fill="#5599e8"/>
      <rect id="Rectángulo_41895" data-name="Rectángulo 41895" width="7.496" height="4.476" transform="translate(995.575 578.443)" fill="#5599e8"/>
      <g id="Grupo_146511" data-name="Grupo 146511" transform="translate(780.631 503.6)">
        <g id="Grupo_146488" data-name="Grupo 146488" transform="translate(51.275 54.584)">
          <path id="Trazado_216572" data-name="Trazado 216572" d="M902.971,355.009H799.064a2.41,2.41,0,1,1,0-4.82H902.971a2.41,2.41,0,0,1,0,4.82Z" transform="translate(-796.654 -350.189)" fill="#080439"/>
        </g>
        <g id="Grupo_146489" data-name="Grupo 146489" transform="translate(45.04 72.304)">
          <path id="Trazado_216573" data-name="Trazado 216573" d="M815.2,360.906c-11.441,0-20.714-1.513-20.714-3.379.2.267,2.252,88.41,2.252,88.41h40.781l-1.608-88.41C835.911,359.393,826.638,360.906,815.2,360.906Z" transform="translate(-794.486 -354.144)" fill="#b1dcff"/>
          <path id="Trazado_216574" data-name="Trazado 216574" d="M815.2,356.35c-11.441,0-20.714,1.513-20.714,3.382s9.273,3.379,20.714,3.379,20.711-1.513,20.711-3.379S826.638,356.35,815.2,356.35Z" transform="translate(-794.486 -356.35)" fill="#c6e5ff"/>
          <ellipse id="Elipse_6206" data-name="Elipse 6206" cx="3.748" cy="1.539" rx="3.748" ry="1.539" transform="translate(16.534 1.775)" fill="#86c2ea"/>
        </g>
        <g id="Grupo_146490" data-name="Grupo 146490" transform="translate(86.534 72.304)">
          <path id="Trazado_216575" data-name="Trazado 216575" d="M829.627,360.906c-11.441,0-20.714-1.513-20.714-3.379.2.267.647,88.41.647,88.41h42.386l-1.608-88.41C850.338,359.393,841.065,360.906,829.627,360.906Z" transform="translate(-808.913 -354.144)" fill="#b1dcff"/>
          <path id="Trazado_216576" data-name="Trazado 216576" d="M829.627,356.35c-11.441,0-20.714,1.513-20.714,3.382s9.273,3.379,20.714,3.379,20.711-1.513,20.711-3.379S841.065,356.35,829.627,356.35Z" transform="translate(-808.913 -356.35)" fill="#c6e5ff"/>
          <ellipse id="Elipse_6207" data-name="Elipse 6207" cx="3.748" cy="1.539" rx="3.748" ry="1.539" transform="translate(16.737 1.842)" fill="#86c2ea"/>
        </g>
        <g id="Grupo_146491" data-name="Grupo 146491" transform="translate(127.959 72.304)">
          <path id="Trazado_216577" data-name="Trazado 216577" d="M844.03,360.906c-11.438,0-20.714-1.513-20.714-3.379.2.267.647,88.41.647,88.41h40.778v-88.41C864.741,359.393,855.469,360.906,844.03,360.906Z" transform="translate(-823.316 -354.144)" fill="#b1dcff"/>
          <path id="Trazado_216578" data-name="Trazado 216578" d="M844.03,356.35c-11.438,0-20.714,1.513-20.714,3.382s9.276,3.379,20.714,3.379,20.711-1.513,20.711-3.379S855.469,356.35,844.03,356.35Z" transform="translate(-823.316 -356.35)" fill="#c6e5ff"/>
          <ellipse id="Elipse_6208" data-name="Elipse 6208" cx="3.748" cy="1.539" rx="3.748" ry="1.539" transform="translate(16.235 1.775)" fill="#86c2ea"/>
        </g>
        <path id="Trazado_216579" data-name="Trazado 216579" d="M825.874,409.72l61.184-32.89L897.4,409.72Z" transform="translate(-690.559 -245.623)" fill="#fdcd45"/>
        <path id="Trazado_216580" data-name="Trazado 216580" d="M831.724,357.317c1,4.619,2.531,21.283,2.531,21.283-.48-5.824,6.146-24.7,6.146-24.7s-8.275-2.209-12.29-5.22A29.563,29.563,0,0,1,831.724,357.317Z" transform="translate(-686.359 -298.43)" fill="none"/>
        <g id="Grupo_146492" data-name="Grupo 146492" transform="translate(43.241 163.691)">
          <path id="Trazado_216581" data-name="Trazado 216581" d="M794.262,522.523a.23.23,0,0,1-.075-.009.4.4,0,0,1-.319-.469L819.3,388.455a.387.387,0,0,1,.469-.319.4.4,0,0,1,.319.472L794.656,522.2A.4.4,0,0,1,794.262,522.523Z" transform="translate(-793.861 -388.124)" fill="#080439"/>
        </g>
        <g id="Grupo_146493" data-name="Grupo 146493" transform="translate(171.868 163.696)">
          <path id="Trazado_216582" data-name="Trazado 216582" d="M873.552,524.455a.4.4,0,0,1-.388-.3L838.6,388.626a.4.4,0,0,1,.149-.42.406.406,0,0,1,.446-.026l113.63,67.765a.412.412,0,0,1,.178.221l20.924,64.581a.4.4,0,1,1-.765.247L952.28,456.558,839.613,389.369,873.94,523.954a.4.4,0,0,1-.288.486A.4.4,0,0,1,873.552,524.455Z" transform="translate(-838.583 -388.126)" fill="#080439"/>
        </g>
        <g id="Grupo_146494" data-name="Grupo 146494">
          <path id="Trazado_216583" data-name="Trazado 216583" d="M963.143,339.734h-.017c-48.072-.224-173.4-.722-179.722-.368a4.016,4.016,0,0,1-2.111-7.682c1.007-.42,1.956-.82,181.87.02a4.015,4.015,0,0,1-.02,8.03Z" transform="translate(-778.826 -331.211)" fill="#080439"/>
        </g>
        <path id="Trazado_216584" data-name="Trazado 216584" d="M849.159,384.848c12.684-1.654,33.645-3.354,45.115-1.967s9.888,5.933,10.547,9.951-7.909,6.491-20.76,6.491H853.709Z" transform="translate(-646.872 -235.228)" fill="#f15767"/>
        <g id="Grupo_146495" data-name="Grupo 146495" transform="translate(9.238 6.239)">
          <path id="Trazado_216585" data-name="Trazado 216585" d="M1059.916,491.639H817.84a.4.4,0,0,1-.391-.313c-3.624-16-35.411-156.344-35.411-157.546a.4.4,0,0,1,.8-.02c.066.569,2.111,9.811,5.192,23.558l.054,0H1093.8a.4.4,0,0,1,.316.155.392.392,0,0,1,.072.345l-33.881,133.522A.4.4,0,0,1,1059.916,491.639Zm-241.754-.8h241.443l33.68-132.719H788.21C797.762,400.768,816.828,484.955,818.162,490.837ZM782.84,333.78h0Z" transform="translate(-782.038 -333.38)" fill="#080439"/>
        </g>
        <g id="Grupo_146500" data-name="Grupo 146500" transform="translate(46.439 30.174)">
          <g id="Grupo_146496" data-name="Grupo 146496" transform="translate(0 0.023)">
            <path id="Trazado_216586" data-name="Trazado 216586" d="M821.978,476.011a.4.4,0,0,1-.391-.322C794.4,342.57,794.839,342.038,795,341.837a.42.42,0,0,1,.716.253.412.412,0,0,1-.008.083c.147,2.931,17.475,88.369,26.664,133.358a.4.4,0,0,1-.313.472A.412.412,0,0,1,821.978,476.011Z" transform="translate(-794.972 -341.71)" fill="#080439"/>
          </g>
          <g id="Grupo_146497" data-name="Grupo 146497" transform="translate(37.158)">
            <path id="Trazado_216587" data-name="Trazado 216587" d="M833.234,476.026a.4.4,0,0,1-.394-.328L807.9,342.177a.4.4,0,1,1,.791-.147l24.939,133.522a.4.4,0,0,1-.319.469A.673.673,0,0,1,833.234,476.026Z" transform="translate(-807.892 -341.702)" fill="#080439"/>
          </g>
          <g id="Grupo_146498" data-name="Grupo 146498" transform="translate(75.467 0.001)">
            <path id="Trazado_216588" data-name="Trazado 216588" d="M842.658,476.026a.4.4,0,0,1-.4-.339L821.216,342.168a.4.4,0,0,1,.334-.46.407.407,0,0,1,.46.334l21.045,133.522a.4.4,0,0,1-.334.457Z" transform="translate(-821.211 -341.702)" fill="#080439"/>
          </g>
          <g id="Grupo_146499" data-name="Grupo 146499" transform="translate(113.735 0)">
            <path id="Trazado_216589" data-name="Trazado 216589" d="M852.143,476.026a.4.4,0,0,1-.4-.351L834.52,342.156a.4.4,0,1,1,.8-.1l17.225,133.519a.406.406,0,0,1-.348.452Z" transform="translate(-834.517 -341.702)" fill="#080439"/>
          </g>
        </g>
        <g id="Grupo_146505" data-name="Grupo 146505" transform="translate(203.994 30.175)">
          <g id="Grupo_146501" data-name="Grupo 146501" transform="translate(0 0.002)">
            <path id="Trazado_216590" data-name="Trazado 216590" d="M850.154,476.025l-.055,0a.4.4,0,0,1-.342-.454l18.471-133.519a.416.416,0,0,1,.454-.345.406.406,0,0,1,.342.454L850.553,475.677A.4.4,0,0,1,850.154,476.025Z" transform="translate(-849.753 -341.703)" fill="#080439"/>
          </g>
          <g id="Grupo_146502" data-name="Grupo 146502" transform="translate(19.89 0.001)">
            <path id="Trazado_216591" data-name="Trazado 216591" d="M857.071,476.025a.433.433,0,0,1-.083-.009.4.4,0,0,1-.31-.477l28.1-133.519a.4.4,0,0,1,.788.167l-28.1,133.519A.4.4,0,0,1,857.071,476.025Z" transform="translate(-856.668 -341.703)" fill="#080439"/>
          </g>
          <g id="Grupo_146503" data-name="Grupo 146503" transform="translate(45.106 0.001)">
            <path id="Trazado_216592" data-name="Trazado 216592" d="M865.837,476.025a.386.386,0,0,1-.081-.009.4.4,0,0,1-.313-.475L893.215,342.02a.41.41,0,0,1,.474-.311.4.4,0,0,1,.314.474L866.231,475.706A.4.4,0,0,1,865.837,476.025Z" transform="translate(-865.435 -341.703)" fill="#080439"/>
          </g>
          <g id="Grupo_146504" data-name="Grupo 146504" transform="translate(68.538)">
            <path id="Trazado_216593" data-name="Trazado 216593" d="M873.984,476.026a.471.471,0,0,1-.089-.009.406.406,0,0,1-.3-.483l30.662-133.519a.4.4,0,1,1,.785.178L874.375,475.713A.4.4,0,0,1,873.984,476.026Z" transform="translate(-873.583 -341.702)" fill="#080439"/>
          </g>
        </g>
        <g id="Grupo_146506" data-name="Grupo 146506" transform="translate(28.511 296.828)">
          <path id="Trazado_216594" data-name="Trazado 216594" d="M809.545,443.758c2.03,6.647-.834,13.411-6.4,15.111s-11.723-2.309-13.753-8.953.837-13.411,6.4-15.111S807.514,437.114,809.545,443.758Z" transform="translate(-788.739 -434.414)" fill="#080439"/>
          <path id="Trazado_216595" data-name="Trazado 216595" d="M801.015,441.249c1.015,3.325-.42,6.71-3.2,7.561s-5.865-1.156-6.88-4.481.417-6.71,3.2-7.561S800,437.924,801.015,441.249Z" transform="translate(-785.242 -430.366)" fill="#332d7a"/>
        </g>
        <path id="Trazado_216596" data-name="Trazado 216596" d="M860.1,441.249c1.018,3.325-.417,6.71-3.2,7.561s-5.867-1.156-6.883-4.481.42-6.71,3.2-7.561S859.08,437.924,860.1,441.249Z" transform="translate(-645.884 -133.538)" fill="#332d7a"/>
        <g id="Grupo_146507" data-name="Grupo 146507" transform="translate(198.442 296.828)">
          <path id="Trazado_216597" data-name="Trazado 216597" d="M868.628,443.758c2.031,6.647-.837,13.411-6.4,15.111s-11.72-2.309-13.751-8.953.834-13.411,6.4-15.111S866.6,437.114,868.628,443.758Z" transform="translate(-847.822 -434.414)" fill="#080439"/>
          <path id="Trazado_216598" data-name="Trazado 216598" d="M860.1,441.249c1.018,3.325-.417,6.71-3.2,7.561s-5.867-1.156-6.883-4.481.42-6.71,3.2-7.561S859.08,437.924,860.1,441.249Z" transform="translate(-844.326 -430.366)" fill="#332d7a"/>
        </g>
        <g id="Grupo_146509" data-name="Grupo 146509" transform="translate(297.323 296.828)">
          <path id="Trazado_216599" data-name="Trazado 216599" d="M903.008,443.758c2.031,6.647-.837,13.411-6.4,15.111s-11.72-2.309-13.751-8.953.834-13.411,6.4-15.111S900.977,437.114,903.008,443.758Z" transform="translate(-882.202 -434.414)" fill="#080439"/>
          <g id="Grupo_146508" data-name="Grupo 146508" transform="translate(5.36 6.206)">
            <path id="Trazado_216600" data-name="Trazado 216600" d="M894.476,441.249c1.018,3.325-.417,6.71-3.2,7.561s-5.867-1.156-6.883-4.481.42-6.71,3.2-7.561S893.46,437.924,894.476,441.249Z" transform="translate(-884.066 -436.572)" fill="#332d7a"/>
          </g>
        </g>
        <g id="Grupo_146510" data-name="Grupo 146510" transform="translate(183.917 6.487)">
          <path id="Trazado_216601" data-name="Trazado 216601" d="M843.172,491.478a.4.4,0,0,1-.4-.4V333.869a.4.4,0,1,1,.8,0V491.076A.4.4,0,0,1,843.172,491.478Z" transform="translate(-842.772 -333.466)" fill="#080439"/>
        </g>
      </g>
    </g>
    <rect id="Rectángulo_41896" data-name="Rectángulo 41896" width="453" height="791" transform="translate(967 1341)" fill="none"/>
  </g>
</svg>
